<svg width="327" height="283" viewBox="0 0 327 283" fill="none" xmlns="http://www.w3.org/2000/svg">
<g clip-path="url(#clip0_124_600)">
<path d="M25.1513 193.317C24.2823 193.317 23.432 193.076 22.6916 192.621C21.6261 191.964 20.8647 190.911 20.5735 189.693C20.2822 188.476 20.4846 187.193 21.1361 186.124C21.5665 185.415 22.1747 184.831 22.8998 184.431C23.6262 184.031 24.4437 183.829 25.273 183.844C26.1022 183.859 26.9116 184.092 27.6227 184.518C28.3338 184.945 28.9198 185.551 29.3233 186.275C29.7268 186.999 29.9327 187.816 29.9222 188.644C29.9105 189.474 29.6824 190.285 29.259 190.998C28.8356 191.711 28.2333 192.301 27.5104 192.706C26.7876 193.113 25.9724 193.324 25.1431 193.317H25.1513ZM25.1513 185.326C24.4437 185.334 23.7583 185.572 23.1957 186.001C22.6343 186.431 22.2261 187.031 22.0331 187.712C21.8402 188.393 21.8729 189.118 22.1267 189.779C22.3805 190.44 22.8402 191.001 23.439 191.379C23.8706 191.65 24.3595 191.819 24.8671 191.869C25.3747 191.919 25.887 191.85 26.363 191.668C26.8391 191.485 27.266 191.194 27.6098 190.817C27.9537 190.441 28.2052 189.989 28.3444 189.498C28.4835 189.007 28.5058 188.491 28.4099 187.989C28.314 187.489 28.1034 187.017 27.7935 186.612C27.4835 186.207 27.0835 185.879 26.625 185.657C26.1665 185.434 25.6613 185.32 25.1513 185.326Z" fill="#A2A2A2"/>
<path d="M32.8029 206.744C32.6696 206.743 32.5398 206.707 32.4263 206.638C32.3128 206.569 32.2204 206.47 32.1585 206.352C32.0965 206.234 32.0684 206.102 32.0766 205.97C32.0848 205.836 32.1292 205.709 32.2052 205.599L40.0604 194.257C40.1703 194.098 40.3399 193.989 40.5294 193.954C40.72 193.92 40.9153 193.963 41.0744 194.072C41.2335 194.182 41.3422 194.352 41.3762 194.541C41.4113 194.732 41.368 194.929 41.258 195.088L33.4018 206.431C33.3339 206.528 33.245 206.606 33.1398 206.661C33.038 206.716 32.921 206.744 32.8029 206.744Z" fill="#362BFD"/>
<path d="M177.18 36.1071C177.043 36.1036 176.91 36.0603 176.796 35.9843C176.682 35.9082 176.591 35.8006 176.535 35.6755C176.479 35.5503 176.46 35.4123 176.479 35.2755C176.499 35.1398 176.556 35.0123 176.644 34.9071L185.589 24.3993C185.721 24.2823 185.891 24.218 186.068 24.2168C186.244 24.2156 186.415 24.2788 186.548 24.3934C186.682 24.5092 186.768 24.6683 186.793 24.8425C186.819 25.0168 186.779 25.1946 186.683 25.342L177.738 35.8544C177.669 35.934 177.582 35.9983 177.486 36.0416C177.39 36.086 177.285 36.1082 177.18 36.1071Z" fill="#362BFD"/>
<path d="M186.905 35.3269C186.733 35.3269 186.567 35.2661 186.435 35.1562L175.915 26.2075C175.829 26.1502 175.754 26.0765 175.699 25.9888C175.643 25.901 175.607 25.8028 175.591 25.6999C175.577 25.5969 175.584 25.4917 175.614 25.3923C175.643 25.2928 175.693 25.2004 175.761 25.1209C175.829 25.0426 175.913 24.9794 176.008 24.9349C176.103 24.8917 176.205 24.8683 176.31 24.8683C176.414 24.8683 176.515 24.8893 176.611 24.9314C176.706 24.9735 176.79 25.0367 176.859 25.1139L187.379 34.0334C187.492 34.1304 187.573 34.2591 187.61 34.4041C187.648 34.548 187.641 34.7 187.588 34.8404C187.537 34.9796 187.444 35.1012 187.321 35.1854C187.2 35.2708 187.054 35.3164 186.905 35.3164V35.3269Z" fill="#362BFD"/>
<path d="M315.833 162.725C315.721 162.725 315.611 162.699 315.511 162.65C315.411 162.599 315.325 162.528 315.257 162.44C315.197 162.364 315.154 162.278 315.13 162.185C315.104 162.093 315.097 161.996 315.11 161.901C315.121 161.806 315.153 161.714 315.2 161.631C315.248 161.548 315.312 161.475 315.388 161.417C316.568 160.506 319.516 157.693 318.959 155.664C318.551 154.172 316.237 153.13 312.272 152.646C311.883 152.617 307.456 152.216 306.231 149.192C305.291 146.874 306.541 143.785 309.948 140.002C310.011 139.931 310.09 139.873 310.176 139.831C310.263 139.788 310.356 139.765 310.453 139.759C310.549 139.753 310.645 139.767 310.737 139.799C310.827 139.831 310.911 139.88 310.982 139.944C311.055 140.008 311.113 140.086 311.154 140.173C311.196 140.26 311.221 140.353 311.225 140.449C311.231 140.545 311.218 140.642 311.186 140.732C311.154 140.824 311.105 140.908 311.041 140.979C308.086 144.259 306.891 146.911 307.59 148.631C308.501 150.882 312.367 151.182 312.403 151.182H312.444C317.18 151.761 319.782 153.094 320.376 155.262C321.286 158.592 316.801 162.16 316.287 162.549C316.16 162.659 316 162.72 315.833 162.725Z" fill="#362BFD"/>
<path d="M291.056 132.963C290.278 132.966 289.512 132.767 288.833 132.386C288.155 132.006 287.586 131.456 287.183 130.791C286.779 130.126 286.555 129.367 286.531 128.591C286.508 127.813 286.686 127.042 287.047 126.353C287.418 125.644 287.971 125.048 288.65 124.623C289.327 124.198 290.106 123.961 290.905 123.937C291.705 123.911 292.496 124.099 293.199 124.481C293.902 124.862 294.492 125.423 294.907 126.108C295.321 126.792 295.547 127.573 295.56 128.373C295.574 129.173 295.374 129.963 294.982 130.66C294.59 131.357 294.02 131.938 293.33 132.343C292.64 132.747 291.856 132.961 291.056 132.963ZM291.056 125.395C290.498 125.394 289.949 125.546 289.472 125.835C288.993 126.123 288.604 126.537 288.344 127.031C288.036 127.621 287.928 128.297 288.038 128.954C288.148 129.612 288.471 130.215 288.956 130.671C289.441 131.129 290.063 131.414 290.726 131.484C291.389 131.556 292.056 131.407 292.626 131.063C293.197 130.718 293.639 130.196 293.886 129.578C294.133 128.958 294.169 128.275 293.991 127.633C293.813 126.991 293.43 126.424 292.9 126.02C292.37 125.616 291.722 125.396 291.056 125.395Z" fill="#EA4335"/>
<path d="M319.767 265.104H21.1653C20.9723 265.104 20.7863 265.027 20.6495 264.89C20.5126 264.754 20.4366 264.568 20.4366 264.375C20.4366 264.182 20.5138 263.997 20.6495 263.86C20.7863 263.724 20.9711 263.647 21.1653 263.647H319.767C319.961 263.647 320.146 263.724 320.283 263.86C320.42 263.997 320.496 264.182 320.496 264.375C320.496 264.568 320.42 264.754 320.283 264.89C320.146 265.027 319.961 265.104 319.767 265.104Z" fill="#161616"/>
<path d="M185.258 119.638C184.811 119.668 184.365 119.588 183.956 119.406C183.548 119.224 183.189 118.947 182.912 118.596C181.276 116.41 183.239 111.673 183.469 111.138C183.507 111.05 183.561 110.97 183.63 110.903C183.699 110.836 183.78 110.783 183.869 110.748C183.958 110.712 184.054 110.694 184.148 110.696C184.244 110.697 184.339 110.718 184.428 110.755C184.516 110.793 184.595 110.848 184.662 110.917C184.728 110.984 184.781 111.066 184.817 111.155C184.852 111.244 184.87 111.339 184.869 111.435C184.868 111.531 184.848 111.625 184.81 111.713C184.082 113.434 183.225 116.588 184.082 117.721C184.19 117.864 184.518 118.302 185.713 118.152C185.907 118.127 186.102 118.181 186.256 118.3C186.409 118.421 186.51 118.596 186.533 118.789C186.558 118.982 186.504 119.178 186.385 119.331C186.265 119.485 186.089 119.585 185.896 119.609C185.684 119.633 185.471 119.642 185.258 119.638Z" fill="#161616"/>
<path d="M174.615 111.448C174.276 111.448 173.612 111.272 173.274 109.99C173.203 109.722 173.156 109.45 173.135 109.174C173.019 107.756 173.5 106.761 174.308 106.692C175.118 106.623 175.767 107.538 175.869 108.952C175.97 110.365 175.504 111.367 174.696 111.432L174.615 111.448Z" fill="#161616"/>
<path d="M191.453 108.07C191.088 108.07 190.417 107.873 189.995 106.576C189.905 106.284 189.842 105.986 189.806 105.683C189.645 104.411 189.93 103.071 190.92 102.947C191.911 102.823 192.52 104.039 192.681 105.322C192.841 106.604 192.557 107.935 191.565 108.063L191.453 108.07Z" fill="#161616"/>
<path d="M191.339 125.855C191.146 125.874 190.953 125.815 190.802 125.692C190.652 125.569 190.557 125.392 190.538 125.199C190.518 125.006 190.576 124.813 190.699 124.662C190.822 124.511 191 124.416 191.194 124.396C191.384 124.357 195.847 123.362 197.092 118.636C197.113 118.54 197.153 118.45 197.211 118.371C197.267 118.29 197.339 118.222 197.422 118.171C197.506 118.119 197.599 118.085 197.696 118.071C197.793 118.056 197.892 118.062 197.987 118.086C198.082 118.111 198.171 118.154 198.248 118.214C198.326 118.273 198.391 118.348 198.44 118.434C198.488 118.519 198.518 118.614 198.529 118.711C198.539 118.808 198.531 118.906 198.503 119.001C197.02 124.619 191.715 125.771 191.489 125.817C191.44 125.834 191.389 125.846 191.339 125.855Z" fill="#161616"/>
<path d="M170.45 100.563C170.45 100.563 167.499 102.022 168.398 103.708C168.398 103.708 168.621 105.724 173.726 102.487C173.95 102.346 174.139 102.154 174.276 101.926C174.412 101.698 174.493 101.44 174.513 101.176C174.572 100.061 174.094 98.9491 170.45 100.563Z" fill="#161616"/>
<path d="M169.357 105.057C169.049 105.064 168.741 105 168.46 104.871C168.272 104.783 168.104 104.656 167.968 104.497C167.832 104.339 167.732 104.153 167.673 103.953C167.438 103.461 167.403 102.899 167.575 102.382C168.038 100.954 169.885 100.013 170.097 99.9082H170.122C172.276 98.9608 173.66 98.7924 174.494 99.3725C175.026 99.7363 175.267 100.375 175.223 101.235C175.195 101.614 175.079 101.981 174.884 102.308C174.687 102.635 174.418 102.911 174.098 103.114C172.039 104.408 170.479 105.057 169.357 105.057ZM169.084 103.552C169.197 103.607 170.086 103.916 173.304 101.872C173.431 101.791 173.54 101.681 173.618 101.553C173.697 101.423 173.743 101.277 173.755 101.125C173.755 100.826 173.736 100.615 173.653 100.556C173.569 100.498 173.049 100.192 170.738 101.223C170.338 101.424 169.201 102.127 168.971 102.833C168.941 102.921 168.93 103.014 168.939 103.105C168.948 103.197 168.976 103.286 169.022 103.366L169.087 103.49L169.084 103.552Z" fill="#161616"/>
<path d="M191.463 95.8415C191.463 95.8415 194.743 95.8415 194.684 97.7655C194.684 97.7655 195.37 99.6778 189.365 99.0076C189.099 98.9784 188.845 98.8883 188.622 98.7433C188.399 98.5983 188.213 98.4029 188.078 98.1737C187.524 97.2041 187.451 96.0017 191.463 95.8415Z" fill="#161616"/>
<path d="M191.616 99.879C190.836 99.872 190.056 99.8228 189.281 99.7328C188.905 99.6883 188.545 99.5562 188.228 99.348C187.912 99.1398 187.649 98.8614 187.458 98.5339C187.029 97.8053 186.971 97.121 187.288 96.5479C187.775 95.6625 189.11 95.2075 191.446 95.1128H191.474C191.708 95.1128 193.78 95.1456 194.827 96.2274C195.208 96.6169 195.422 97.1397 195.423 97.6848C195.46 97.8906 195.451 98.1012 195.4 98.3023C195.347 98.5047 195.253 98.693 195.122 98.8544C194.567 99.5363 193.406 99.879 191.616 99.879ZM191.478 96.5701C188.927 96.6719 188.585 97.1935 188.562 97.252C188.541 97.3105 188.562 97.5503 188.723 97.8088C188.799 97.9398 188.904 98.0509 189.03 98.1339C189.158 98.2158 189.302 98.2672 189.453 98.2825C193.234 98.7059 193.901 98.0427 193.981 97.9398L193.959 97.8824V97.7433C193.966 97.6509 193.952 97.5585 193.919 97.4719C193.887 97.3842 193.836 97.3058 193.77 97.2403C193.253 96.7046 191.923 96.5736 191.478 96.5701Z" fill="#161616"/>
<path d="M208.22 104.397C208.06 104.397 207.904 104.343 207.778 104.246C207.65 104.148 207.559 104.011 207.518 103.857C207.476 103.702 207.487 103.538 207.548 103.39C207.61 103.242 207.717 103.118 207.856 103.038C210.089 101.737 211.3 100.461 211.263 99.4486C211.226 98.4357 210.006 97.845 209.994 97.838C209.821 97.7538 209.688 97.6041 209.625 97.4204C209.562 97.238 209.573 97.038 209.658 96.8637C209.743 96.6894 209.893 96.5561 210.075 96.4929C210.259 96.4298 210.459 96.4415 210.633 96.5269C210.716 96.5666 212.647 97.5327 212.721 99.3936C212.778 101.016 211.391 102.673 208.592 104.299C208.479 104.363 208.351 104.397 208.22 104.397Z" fill="#161616"/>
<path fill-rule="evenodd" clip-rule="evenodd" d="M219.359 76.1908C219.359 76.1908 228.246 106.175 245.735 104.378C245.735 104.378 238.499 99.8497 236.342 93.5315C233.609 85.5232 219.359 76.1908 219.359 76.1908Z" fill="#EA4335"/>
<path d="M244.259 105.181C237.381 105.181 230.877 100.444 225.364 91.3338C222.574 86.6238 220.326 81.612 218.664 76.3955L218.099 74.4785L219.759 75.5721C220.35 75.9581 234.251 85.1325 237.031 93.2835C239.074 99.2778 246.052 103.705 246.121 103.748L247.918 104.874L245.808 105.09C245.294 105.147 244.777 105.177 244.259 105.181ZM220.751 78.0423C223.006 84.3535 230.753 103.026 243.531 103.705C241.174 101.883 237.202 98.3047 235.653 93.7642C233.602 87.7559 224.624 80.819 220.751 78.0423Z" fill="#EA4335"/>
<path fill-rule="evenodd" clip-rule="evenodd" d="M222.984 81.5184C222.984 81.5184 219.108 112.551 235.854 117.911C235.854 117.911 231.037 110.864 231.595 104.211C232.301 95.7795 222.984 81.5184 222.984 81.5184Z" fill="#EA4335"/>
<path d="M237.65 119.252L235.631 118.607C228.498 116.323 223.928 109.134 222.416 97.8017C221.748 92.3677 221.696 86.8764 222.262 81.4307L222.507 79.4552L223.601 81.1207C223.986 81.7114 233.04 95.6953 232.323 104.273C231.795 110.583 236.411 117.434 236.459 117.503L237.65 119.252ZM223.516 83.7734C223.058 90.4601 222.667 110.671 234.101 116.414C232.673 113.809 230.458 108.929 230.87 104.149C231.397 97.824 225.954 87.8694 223.516 83.7734Z" fill="#EA4335"/>
<path d="M197.883 64.1415C198.248 59.9332 200.375 47.1435 211.915 45.7517C213.702 45.5213 215.518 45.74 217.199 46.388C218.88 47.0359 220.372 48.0933 221.542 49.464C225.036 53.636 227.983 61.6198 218.368 74.2844C218.368 74.2844 218.503 74.4844 218.733 74.8598C208.804 77.0751 209.426 71.158 206.489 70.7463C203.388 70.3124 201.96 68.4538 201.96 68.4538C201.126 66.2912 199.264 64.9064 197.883 64.1415Z" fill="#161616"/>
<path d="M214.776 76.0856C210.804 76.0856 209.31 74.2633 208.122 72.8504C207.441 72.027 207.029 71.5568 206.399 71.4691C203.039 70.9989 201.457 68.9872 201.392 68.9006L201.326 68.8164L201.29 68.7217C200.529 66.7614 198.827 65.4971 197.53 64.7789L197.115 64.5497L197.158 64.076C197.523 59.98 199.676 46.4956 211.827 45.03C213.736 44.7809 215.675 45.0125 217.471 45.7061C219.265 46.3997 220.858 47.5307 222.102 48.9974C225.979 53.6243 228.599 61.7496 219.257 74.3171L219.356 74.4703L219.909 75.3487L218.91 75.5709C217.555 75.8938 216.169 76.0657 214.776 76.0856ZM202.601 68.069C202.878 68.3825 204.146 69.6726 206.61 70.0153C207.827 70.186 208.556 71.0609 209.255 71.9101C210.523 73.4364 212.082 75.3206 217.551 74.3475L217.486 74.2493L217.799 73.8341C226.927 61.8105 224.574 54.1986 220.995 49.9249C219.902 48.6418 218.506 47.6547 216.931 47.0523C215.358 46.45 213.658 46.2523 211.987 46.478C201.333 47.7646 199.101 59.4677 198.641 63.7485C200.066 64.6011 201.753 65.993 202.601 68.0807V68.069Z" fill="#161616"/>
<path d="M222.376 76.1873C221.141 76.1897 219.907 76.068 218.696 75.8224L217.835 75.6434L218.182 74.8423C218.288 74.5768 220.843 68.3778 224.967 67.4679C226.712 67.0854 228.436 67.6796 230.101 69.2316C231.274 70.3252 231.595 71.6551 230.971 72.8574C229.893 74.9089 226.344 76.1873 222.376 76.1873ZM219.899 74.551C224.832 75.2797 228.854 73.7417 229.664 72.1756C229.78 71.9498 230.134 71.2644 229.087 70.2878C227.779 69.0632 226.537 68.6047 225.27 68.8808C222.679 69.4504 220.693 72.9335 219.899 74.551Z" fill="#161616"/>
<path d="M229.219 82.5863C224.66 82.5863 219.253 76.1008 219.017 75.8201L217.923 74.4762L219.661 74.6329C221.687 74.8154 231.853 75.868 233.143 78.7429C233.285 79.0646 233.333 79.4201 233.28 79.7675C233.229 80.1149 233.078 80.4412 232.847 80.7067C232.457 81.2751 231.935 81.7418 231.328 82.0681C230.72 82.3944 230.044 82.5722 229.354 82.5863H229.219ZM221.411 76.3008C223.389 78.3371 226.679 81.143 229.219 81.143H229.295C229.764 81.1324 230.224 81.0096 230.635 80.7839C231.046 80.5582 231.396 80.2365 231.657 79.8459C231.879 79.5511 231.821 79.419 231.788 79.3464C231.19 77.9874 225.866 76.84 221.411 76.3008Z" fill="#161616"/>
<path d="M227.958 104.663C227.733 106.305 227.184 107.885 226.344 109.314C225.506 110.743 224.392 111.991 223.068 112.989C220.936 114.595 218.269 117.361 218.638 121.063C218.899 124.034 218.264 127.015 216.816 129.622L214.688 133.557C214.688 133.557 209.222 119.93 210.118 109.076C210.118 109.076 221.731 101.945 217.512 94.7526C213.293 87.5595 206.217 94.0052 206.217 94.0052C206.217 94.0052 193.041 90.0367 191.255 78.1219C191.255 78.1219 159.264 107.694 156.907 92.3549C154.673 77.8423 165.556 72.1685 176.441 67.8258C176.441 67.8258 183.207 64.3427 197.125 65.4211C199.311 69.5966 205.648 78.4505 219.232 75.6446C221.859 79.9441 229.478 93.528 227.958 104.663Z" fill="#161616"/>
<path d="M214.578 135.269L213.999 133.83C213.773 133.266 208.461 119.914 209.379 109.014L209.408 108.649L209.725 108.456C209.834 108.387 220.678 101.612 216.871 95.1198C215.842 93.3677 214.557 92.3619 213.045 92.1315C209.932 91.6543 206.737 94.5151 206.704 94.5444L206.399 94.8216L206.005 94.7046C205.874 94.6648 193.339 90.7618 190.781 79.5429C186.581 83.3067 170.169 97.4918 161.53 97.4918C160.86 97.5011 160.192 97.397 159.556 97.1853C157.701 96.5374 156.568 94.9526 156.189 92.4742C153.868 77.4119 165.265 71.5124 176.141 67.1696C176.739 66.8714 183.567 63.6467 197.184 64.7029L197.585 64.7321L197.774 65.0959C199.793 68.9615 205.917 77.6634 219.086 74.9335H219.232H219.639L219.858 75.2984C223.013 80.4611 230.188 93.666 228.679 104.787C228.439 106.522 227.859 108.195 226.971 109.706C226.085 111.218 224.908 112.54 223.509 113.597C221.436 115.16 219.034 117.714 219.363 121.015C219.638 124.124 218.972 127.242 217.453 129.968L214.578 135.269ZM210.804 109.494C210.21 117.914 213.46 128.051 214.812 131.8L216.175 129.276C217.564 126.8 218.175 123.964 217.927 121.135C217.53 117.16 220.274 114.194 222.664 112.409C225.178 110.507 226.834 107.686 227.27 104.564C228.705 93.9982 221.56 80.881 218.91 76.4645C217.369 76.7616 215.803 76.9136 214.232 76.9195C203.96 76.9195 198.743 69.8539 196.706 66.1228C183.469 65.1754 176.873 68.448 176.808 68.4807L176.742 68.51C165.907 72.8352 155.503 78.2318 157.661 92.2519C157.956 94.183 158.754 95.3456 160.07 95.8087C166.628 98.1 184.482 83.4202 190.796 77.5897L191.806 76.6575L192.009 78.0201C193.544 88.2226 203.986 92.4309 206.089 93.1818C207.08 92.3759 210.097 90.2004 213.289 90.6858C215.26 90.9841 216.9 92.2262 218.161 94.3806C222.296 101.49 212.738 108.23 210.804 109.494Z" fill="#161616"/>
<path d="M219.232 75.6516C205.648 78.4575 199.308 69.6036 197.125 65.4269L197.795 65.4784C197.795 65.4784 197.795 64.9789 197.883 64.1415C199.264 64.9064 201.126 66.2912 201.967 68.455C201.967 68.455 203.397 70.3135 206.497 70.7475C209.434 71.1592 208.811 77.0762 218.74 74.861C218.874 75.0727 219.042 75.3347 219.232 75.6516Z" fill="#EA4335"/>
<path d="M214.199 76.9195C203.586 76.9195 198.372 69.3802 196.481 65.7661L195.88 64.6152L197.108 64.6959C197.108 64.5169 197.137 64.3099 197.158 64.0725L197.264 62.9789L198.236 63.5181C199.719 64.338 201.666 65.7953 202.609 68.0948C202.885 68.4082 204.155 69.6983 206.617 70.041C207.834 70.2118 208.563 71.0866 209.262 71.9358C210.607 73.5569 212.28 75.5791 218.602 74.1662L219.1 74.0528L219.374 74.4867C219.52 74.7124 219.687 74.9744 219.876 75.2961L220.402 76.1745L219.399 76.3826C217.689 76.737 215.947 76.9172 214.199 76.9195ZM198.434 66.262C200.284 69.3159 204.052 73.8376 210.589 75.1124C209.633 74.5183 208.796 73.751 208.122 72.8492C207.441 72.0258 207.028 71.5557 206.399 71.4679C203.039 70.9977 201.457 68.986 201.392 68.8995L201.326 68.8153L201.29 68.7205C200.717 67.3661 199.756 66.2117 198.529 65.4012C198.529 65.4596 198.529 65.4889 198.529 65.4889V66.269L198.434 66.262Z" fill="#EA4335"/>
<path d="M200.036 156.461L199.836 156.392C198.281 155.864 190.49 153.061 189.922 149.95C189.816 149.371 189.896 148.493 190.876 147.699C193.685 145.377 192.133 140.553 191.544 139.022C185.848 139.555 180.434 137.908 175.445 134.122C161.537 123.595 162.102 93.2613 162.132 91.9677V91.604L192.356 70.6527L212.892 83.322L224.124 94.4602L223.873 94.9374C223.775 95.1233 214.035 113.732 215.398 129.512C216.74 145.089 222.686 149.692 222.733 149.735L223.972 150.66L222.471 151.025L200.036 156.461ZM192.447 137.456L192.669 137.937C192.808 138.235 196.018 145.341 191.806 148.82C191.277 149.258 191.336 149.571 191.354 149.688C191.656 151.331 196.586 153.717 200.098 154.945L220.827 149.914C218.929 147.83 215.019 142.116 213.941 129.622C212.651 114.654 220.755 97.831 222.321 94.7233L211.987 84.4729L192.403 72.3943L163.582 92.3759C163.56 95.8894 163.804 123.486 176.334 132.978C181.178 136.647 186.424 138.177 191.933 137.532L192.447 137.456Z" fill="#161616"/>
<path d="M160.612 89.5595C160.564 89.5572 160.518 89.5455 160.474 89.5256C160.431 89.5045 160.392 89.4765 160.36 89.4402C160.328 89.4051 160.302 89.363 160.287 89.3186C160.271 89.2729 160.264 89.225 160.266 89.177C160.75 79.4634 166.912 74.1253 171.991 71.3557C175.418 69.5205 179.127 68.2691 182.966 67.6538C183.014 67.648 183.062 67.6515 183.109 67.6632C183.155 67.6761 183.199 67.6971 183.236 67.7264C183.273 67.7556 183.306 67.793 183.33 67.834C183.353 67.8761 183.368 67.9217 183.374 67.9696C183.38 68.0176 183.378 68.0655 183.365 68.1123C183.352 68.1591 183.33 68.2024 183.3 68.2398C183.271 68.2772 183.235 68.31 183.193 68.3334C183.151 68.3568 183.105 68.372 183.057 68.3778C179.303 68.9813 175.675 70.2059 172.324 72.0036C165.182 75.9019 161.37 81.6927 160.991 89.2121C160.987 89.308 160.944 89.3993 160.873 89.4636C160.802 89.5291 160.708 89.5642 160.612 89.5595Z" fill="white"/>
<path d="M205.925 91.3958H205.87C198.437 90.2636 193.635 79.226 193.434 78.7558C193.414 78.7113 193.402 78.6634 193.4 78.6143C193.398 78.5651 193.406 78.516 193.423 78.4704C193.441 78.4248 193.468 78.3827 193.502 78.3476C193.536 78.3125 193.577 78.2844 193.622 78.2646C193.667 78.2458 193.716 78.2353 193.765 78.2353C193.814 78.2353 193.862 78.2458 193.908 78.2646C193.952 78.2833 193.993 78.3113 194.027 78.3476C194.061 78.3827 194.088 78.4248 194.105 78.4704C194.152 78.5792 198.947 89.6016 205.979 90.6765C206.027 90.6835 206.073 90.6999 206.114 90.7244C206.155 90.749 206.191 90.7817 206.219 90.8203C206.247 90.8589 206.268 90.9022 206.28 90.949C206.29 90.9958 206.293 91.0437 206.286 91.0917C206.27 91.1759 206.227 91.2531 206.16 91.3092C206.095 91.3665 206.011 91.3969 205.925 91.3958Z" fill="white"/>
<path d="M222.424 62.4549C222.398 62.4584 222.372 62.4584 222.347 62.4549C222.253 62.435 222.17 62.3777 222.119 62.2982C222.066 62.2175 222.047 62.1192 222.066 62.0257C223.123 57.0408 222.526 53.3974 220.292 51.1962C216.538 47.4944 209.303 49.0792 209.229 49.0979C209.137 49.1155 209.04 49.0968 208.962 49.0453C208.882 48.9939 208.826 48.9131 208.805 48.8208C208.784 48.7284 208.8 48.6313 208.849 48.5506C208.898 48.4699 208.978 48.4114 209.069 48.388C209.383 48.3155 216.761 46.6932 220.802 50.6758C223.225 53.0618 223.892 56.932 222.781 62.1754C222.762 62.2561 222.716 62.3274 222.651 62.3777C222.586 62.428 222.506 62.4549 222.424 62.4549Z" fill="white"/>
<path d="M268.683 217.362C264.46 219.417 257.108 219.985 250.035 219.959C244.934 219.959 239.972 219.613 236.444 219.307C233.329 219.038 231.343 218.79 231.343 218.79L232.553 223.362L235.329 233.856L239.221 248.562L229.656 246.096L227.16 245.367L209.841 240.425L184.187 233.113L164.402 227.473L155.777 212.789L144.441 193.477C145.338 186.919 147.035 181.507 149.178 177.034C150.399 174.462 151.878 172.019 153.591 169.746C162.125 158.451 173.099 156.396 173.099 156.396C181.724 154.14 186.216 151.855 188.519 150.162C190.727 148.555 190.975 147.48 190.975 147.48C204.027 157.478 217.497 148.394 219.818 146.677C220.047 146.507 220.183 146.408 220.183 146.408C222.161 150.124 227.153 153.073 231.442 155.033C233.762 156.095 236.148 157.006 238.587 157.762C241.074 158.519 243.486 159.507 245.79 160.713C250.414 163.158 254.502 166.504 257.814 170.552C268.333 183.245 270.815 201.099 272.199 212.187C272.502 214.504 271.11 216.18 268.683 217.362Z" fill="#EA4335"/>
<path d="M156.462 264.375C153.744 262.597 151.099 260.706 148.479 258.796C144.47 255.882 140.521 252.84 136.688 249.688C134.936 248.23 116.247 228.965 110.972 223.088C106.099 217.678 100.568 213.102 95.1503 208.307C92.4391 205.902 89.749 203.473 87.08 201.019L106.46 183.803C106.46 183.803 103.909 175.558 108.009 173.324C112.107 171.09 120.477 192.168 120.477 192.168C120.477 192.168 121.84 200.604 129.903 202.032C137.967 203.461 148.446 225.691 148.446 225.691L198.186 253.017L195.592 264.375H156.462Z" fill="white"/>
<path d="M196.164 265.104H156.24L156.058 264.984C153.205 263.118 150.403 261.106 148.041 259.384C143.783 256.279 139.916 253.288 136.218 250.238C134.316 248.671 115.514 229.239 110.421 223.581C106.486 219.209 102.015 215.295 97.6894 211.513C96.68 210.631 95.6672 209.745 94.6613 208.853C91.8449 206.36 89.1232 203.905 86.5758 201.566L85.9851 201.019L105.624 183.573C105.133 181.719 103.635 174.883 107.655 172.693C107.935 172.545 108.245 172.458 108.563 172.44C108.881 172.424 109.198 172.477 109.494 172.595C114.009 174.228 120.425 190.113 121.154 191.906L121.194 192.06C121.249 192.384 122.586 200.002 130.03 201.322C138.023 202.736 147.829 222.699 149.003 225.14L199.019 252.654L196.164 265.104ZM156.681 263.647H195.001L197.354 253.382L147.889 226.201L147.786 225.985C147.684 225.767 137.377 204.124 129.775 202.765C121.76 201.344 119.956 193.32 119.774 192.387C117.865 187.6 112.293 175.149 109.007 173.961C108.906 173.912 108.795 173.885 108.683 173.885C108.57 173.885 108.459 173.912 108.359 173.961C105.444 175.558 106.5 181.452 107.156 183.592L107.294 184.036L88.1653 201.027C90.5337 203.213 93.0402 205.461 95.6344 207.757C96.6403 208.646 97.6473 209.53 98.6555 210.408C103.028 214.22 107.516 218.159 111.514 222.6C116.863 228.543 135.515 247.742 137.151 249.109C140.827 252.14 144.672 255.113 148.909 258.217C151.204 259.883 153.918 261.832 156.681 263.647Z" fill="#161616"/>
<path d="M94.8005 184.62C94.8005 184.62 96.4836 179.78 99.0345 179.051C101.585 178.322 118.758 183.02 120.62 188.602C122.482 194.184 113.121 191.233 111.565 190.788C109.473 190.146 94.8005 184.62 94.8005 184.62Z" fill="white"/>
<path d="M117.774 192.671C116.193 192.671 114.109 192.282 111.503 191.505L111.339 191.455C109.266 190.846 95.1433 185.526 94.5421 185.3L93.8789 185.049L94.1117 184.379C94.2941 183.847 95.9924 179.161 98.8123 178.338C100.511 177.842 106.099 179.204 110.315 180.756C113.907 182.079 120.113 184.823 121.29 188.358C121.771 189.815 121.636 190.908 120.892 191.691C120.258 192.344 119.228 192.671 117.774 192.671ZM95.755 184.193C98.6696 185.286 109.995 189.538 111.762 190.06L111.93 190.11C117.865 191.881 119.45 191.097 119.855 190.678C120.193 190.315 120.219 189.702 119.92 188.816C119.192 186.692 115.438 184.189 109.823 182.123C104.755 180.257 100.164 179.463 99.231 179.737C97.6977 180.181 96.3667 182.696 95.755 184.193Z" fill="#161616"/>
<path d="M91.4519 189.145C91.4519 189.145 90.1221 183.004 95.252 182.88C100.382 182.758 103.854 187.596 103.916 190.945C103.978 194.294 93.9736 190.945 93.9736 190.945L91.4519 189.145Z" fill="white"/>
<path d="M101.305 193.157C98.4777 193.157 94.6952 191.953 93.7443 191.633L93.639 191.6L90.8004 189.574L90.7384 189.297C90.7092 189.159 90.0097 185.843 91.6565 183.759C92.4659 182.732 93.6718 182.193 95.2344 182.152C96.4192 182.137 97.5958 182.356 98.6953 182.799C99.7947 183.241 100.796 183.897 101.639 184.728C103.461 186.47 104.605 188.845 104.645 190.923C104.66 191.237 104.596 191.552 104.458 191.835C104.321 192.119 104.114 192.364 103.858 192.547C103.265 192.992 102.35 193.157 101.305 193.157ZM94.2975 190.285C97.2485 191.262 101.829 192.23 102.984 191.378C103.052 191.332 103.107 191.268 103.141 191.192C103.175 191.117 103.188 191.034 103.177 190.952C103.144 189.269 102.142 187.238 100.626 185.778C99.9245 185.073 99.0883 184.517 98.1678 184.141C97.2473 183.766 96.2601 183.579 95.266 183.592C94.1396 183.617 93.3314 183.955 92.7957 184.641C91.8846 185.803 91.9653 187.767 92.1104 188.704L94.2975 190.285Z" fill="#161616"/>
<path d="M91.4519 187.906C91.4519 187.906 86.3255 186.787 88.329 196.061C88.329 196.061 96.8485 199.38 99.5117 195.656C102.175 191.932 94.8005 188.161 91.4519 187.906Z" fill="white"/>
<path d="M95.0262 198.144C91.7466 198.144 88.3033 196.829 88.0775 196.738L87.7126 196.595L87.6284 196.232C86.7758 192.285 87.06 189.567 88.4811 188.15C88.8846 187.764 89.3723 187.476 89.9068 187.311C90.4402 187.146 91.0051 187.107 91.5571 187.199C94.232 187.417 99.121 189.619 100.463 192.485C100.749 193.06 100.87 193.704 100.808 194.343C100.747 194.981 100.507 195.591 100.116 196.101C98.9795 197.653 97.0262 198.144 95.0262 198.144ZM88.97 195.517C91.4437 196.402 97.114 197.768 98.9315 195.233C99.1725 194.934 99.3199 194.573 99.3573 194.191C99.3947 193.809 99.3187 193.426 99.1397 193.086C98.0684 190.792 93.7104 188.802 91.4074 188.63H91.3092C90.9829 188.575 90.6484 188.596 90.3326 188.693C90.0156 188.791 89.7267 188.96 89.4881 189.188C88.7992 189.877 88.1653 191.546 88.9594 195.517H88.97Z" fill="#161616"/>
<path d="M86.3032 194.912C84.5254 195.499 83.1371 197.375 85.1114 199.919C86.2834 201.42 87.9863 202.414 89.8706 202.695C91.8156 202.998 94.2133 202.808 95.0484 200.371C95.8824 197.933 93.9303 196.497 92.0858 195.765C90.2893 195.058 88.122 194.311 86.3032 194.912Z" fill="white"/>
<path d="M91.1899 203.533C90.7115 203.531 90.2343 203.491 89.7618 203.416C87.6939 203.108 85.8225 202.016 84.5371 200.367C83.2763 198.738 83.309 197.427 83.557 196.611C83.757 196.041 84.0892 195.526 84.5266 195.111C84.964 194.695 85.495 194.389 86.0752 194.22C88.0425 193.572 90.2577 194.253 92.3572 195.088C95.349 196.278 96.5514 198.239 95.7385 200.607C95.0812 202.521 93.4882 203.533 91.1899 203.533ZM86.5325 195.605C86.1746 195.702 85.8436 195.882 85.5687 196.131C85.2939 196.38 85.081 196.69 84.9477 197.036C84.736 197.732 84.9909 198.578 85.6763 199.475C86.7337 200.828 88.2729 201.723 89.9723 201.974C92.3303 202.338 93.8016 201.723 94.3443 200.152C94.5443 199.57 95.1537 197.794 91.7934 196.461C89.9723 195.71 88.0553 195.102 86.5325 195.605Z" fill="#161616"/>
<path d="M174.506 222.979H146.227C146.099 222.981 145.971 222.948 145.859 222.883C145.746 222.819 145.654 222.727 145.59 222.616L128.719 192.223C128.655 192.112 128.622 191.987 128.622 191.86C128.622 191.731 128.655 191.606 128.719 191.495C128.784 191.385 128.875 191.292 128.986 191.228C129.096 191.165 129.222 191.131 129.35 191.131H157.629C157.757 191.13 157.885 191.162 157.996 191.227C158.108 191.29 158.202 191.384 158.266 191.495L175.135 221.883C175.2 221.993 175.234 222.12 175.234 222.247C175.234 222.375 175.2 222.501 175.135 222.612C175.072 222.723 174.981 222.816 174.87 222.88C174.76 222.944 174.634 222.979 174.506 222.979ZM146.653 221.522H173.252L157.195 192.592H130.592L146.653 221.522Z" fill="#161616"/>
<path d="M157.636 191.863H129.357L125.746 195.47H154.028L157.636 191.863Z" fill="white"/>
<path d="M154.028 196.199H125.746C125.602 196.199 125.462 196.156 125.343 196.075C125.223 195.995 125.131 195.882 125.076 195.749C125.021 195.616 125.007 195.47 125.034 195.329C125.062 195.188 125.131 195.058 125.233 194.957L128.84 191.35C128.908 191.281 128.988 191.227 129.077 191.191C129.166 191.153 129.261 191.134 129.357 191.134H157.636C157.779 191.134 157.92 191.176 158.04 191.256C158.16 191.337 158.253 191.45 158.309 191.582C158.364 191.716 158.378 191.862 158.351 192.003C158.323 192.145 158.254 192.275 158.152 192.377L154.545 195.987C154.478 196.055 154.397 196.109 154.308 196.145C154.219 196.181 154.124 196.2 154.028 196.199ZM127.506 194.741H153.741L155.894 192.592H129.66L127.506 194.741Z" fill="#161616"/>
<path d="M174.506 222.259L170.898 225.862L154.028 195.467L157.636 191.863L174.506 222.259Z" fill="white"/>
<path d="M170.898 226.59H170.796C170.685 226.575 170.578 226.534 170.486 226.471C170.392 226.408 170.315 226.325 170.26 226.226L153.395 195.813C153.317 195.675 153.288 195.516 153.309 195.359C153.331 195.202 153.403 195.057 153.514 194.945L157.122 191.341C157.202 191.262 157.299 191.202 157.405 191.166C157.512 191.131 157.626 191.12 157.737 191.136C157.848 191.151 157.955 191.192 158.048 191.256C158.141 191.319 158.218 191.403 158.273 191.502L175.143 221.898C175.219 222.036 175.249 222.196 175.226 222.351C175.204 222.508 175.131 222.653 175.019 222.764L171.412 226.368C171.346 226.438 171.265 226.493 171.177 226.53C171.09 226.569 170.995 226.589 170.898 226.59ZM154.935 195.594L171.066 224.664L173.616 222.13L157.482 193.062L154.935 195.594Z" fill="#161616"/>
<path d="M170.898 225.861H142.617L125.746 195.47H154.028L170.898 225.861Z" fill="#362BFD"/>
<path d="M170.898 226.591H142.617C142.487 226.592 142.36 226.558 142.248 226.494C142.136 226.431 142.043 226.339 141.979 226.226L125.112 195.813C125.048 195.702 125.014 195.577 125.014 195.448C125.014 195.32 125.048 195.194 125.112 195.084C125.175 194.974 125.267 194.882 125.376 194.819C125.486 194.754 125.612 194.72 125.739 194.719H154.021C154.15 194.718 154.276 194.752 154.389 194.815C154.501 194.879 154.595 194.972 154.659 195.084L171.543 225.508C171.608 225.619 171.642 225.746 171.64 225.874C171.64 226.003 171.607 226.129 171.541 226.24C171.477 226.351 171.384 226.443 171.272 226.507C171.161 226.57 171.035 226.603 170.906 226.602L170.898 226.591ZM143.046 225.133H169.645L153.584 196.199H126.985L143.046 225.133Z" fill="#161616"/>
<path d="M132.848 191.987L122.084 164.933L119.578 165.935L130.34 192.993C130.494 193.357 131.175 193.462 131.868 193.186C132.56 192.909 133 192.37 132.848 191.987Z" fill="#362BFD"/>
<path d="M131.098 194.067C131.008 194.072 130.917 194.072 130.826 194.067C130.58 194.051 130.343 193.968 130.14 193.828C129.938 193.686 129.779 193.494 129.677 193.269L118.914 166.211C118.841 166.033 118.841 165.832 118.914 165.654C118.99 165.478 119.133 165.339 119.311 165.267L121.819 164.27C121.907 164.233 122.002 164.216 122.098 164.217C122.194 164.219 122.289 164.239 122.376 164.277C122.464 164.315 122.544 164.37 122.61 164.438C122.678 164.507 122.731 164.589 122.766 164.678L133.529 191.732C133.611 191.965 133.626 192.215 133.575 192.456C133.525 192.698 133.409 192.922 133.241 193.102C132.945 193.443 132.57 193.708 132.149 193.87C131.813 194 131.457 194.067 131.098 194.067ZM130.986 192.609C131.201 192.629 131.418 192.594 131.616 192.508C131.819 192.431 131.999 192.306 132.14 192.144L121.691 165.88L120.532 166.335L130.986 192.609Z" fill="#362BFD"/>
<path d="M120.332 167.028C120.038 167.052 119.745 166.987 119.489 166.842C119.234 166.695 119.028 166.475 118.899 166.211C118.818 165.98 118.802 165.729 118.854 165.488C118.904 165.247 119.02 165.025 119.187 164.845C119.484 164.504 119.859 164.239 120.28 164.077C121.374 163.639 122.444 163.898 122.754 164.678C122.837 164.909 122.854 165.16 122.802 165.401C122.752 165.642 122.636 165.865 122.466 166.044C122.171 166.385 121.795 166.65 121.374 166.812C121.043 166.95 120.69 167.023 120.332 167.028ZM121.061 165.359C120.986 165.377 120.912 165.402 120.842 165.432C120.769 165.457 120.699 165.489 120.634 165.53C120.699 165.512 120.773 165.489 120.852 165.46C120.919 165.426 120.983 165.387 121.045 165.344L121.061 165.359Z" fill="#161616"/>
<path d="M168.727 213.564C168.541 213.565 168.363 213.495 168.228 213.368C168.092 213.241 168.01 213.068 167.998 212.883C167.666 207.836 170.815 191.44 170.935 190.744C170.971 190.554 171.081 190.387 171.242 190.278C171.401 190.169 171.597 190.129 171.788 190.165C171.977 190.201 172.145 190.311 172.253 190.471C172.362 190.631 172.403 190.828 172.367 191.017C172.334 191.188 169.135 207.917 169.452 212.789C169.458 212.885 169.446 212.98 169.415 213.07C169.384 213.162 169.335 213.246 169.272 213.318C169.209 213.39 169.132 213.449 169.046 213.492C168.96 213.534 168.866 213.558 168.77 213.564H168.727Z" fill="#161616"/>
<path d="M230.064 217.798L234.532 243.97C234.532 243.97 186.278 230.45 185.411 228.97C184.628 227.625 175.853 209.659 166.613 209.659C166.155 209.665 165.705 209.783 165.301 210.003C164.899 210.222 164.557 210.538 164.305 210.922C164.053 211.306 163.9 211.745 163.857 212.203C163.815 212.659 163.886 213.12 164.063 213.543C164.712 215.076 167.192 217.915 168.679 221.15C171.066 226.325 156.554 225.68 144.1 218.268C142.722 217.448 141.516 216.382 140.117 215.605C135.978 213.306 128.457 209.921 128.927 215.941C129.484 223.198 145.174 228.967 145.174 228.967C145.174 228.967 138.615 227.447 141.483 235.635C141.483 235.635 137.111 237.587 141.02 242.237C141.02 242.237 138.507 247.17 143.159 249.961C147.812 252.752 159.811 254.519 164.927 256.75C170.042 258.979 204.544 268.562 207.252 269.779C209.958 270.995 257.115 291.641 265.768 275.452C274.422 259.263 273.125 220.797 271.536 212.472C271.525 212.465 249.073 225.553 230.064 217.798Z" fill="white"/>
<path d="M272.218 212.242C272.218 212.242 270.852 212.548 270.881 212.821C270.931 213.269 271 213.747 271.005 213.779C272.611 224.678 273.031 260.291 265.116 275.102C256.67 290.898 208.031 269.328 207.546 269.105C206.34 268.566 199.643 266.598 191.168 264.11C180.882 261.089 168.085 257.332 165.21 256.093C162.941 255.103 159.436 254.224 155.737 253.295C151 252.104 146.081 250.872 143.538 249.345C139.53 246.945 141.585 242.754 141.673 242.579L141.891 242.149L141.581 241.784C140.426 240.408 139.957 239.197 140.183 238.188C140.463 236.932 141.774 236.319 141.785 236.312L142.398 236.038L142.176 235.404C141.308 232.941 141.257 231.178 142.026 230.304C142.543 229.721 143.381 229.575 144.038 229.575C144.365 229.573 144.693 229.605 145.014 229.67L145.429 228.274C145.276 228.219 130.173 222.586 129.656 215.886C129.565 214.723 129.805 213.951 130.366 213.59C131.711 212.73 135.223 213.717 139.767 216.242C140.483 216.659 141.174 217.118 141.836 217.617C142.441 218.05 143.064 218.499 143.728 218.892C153.996 225.002 165.87 226.671 168.868 223.992C169.378 223.534 170.122 222.514 169.357 220.855C168.479 219.074 167.457 217.369 166.3 215.755C165.718 214.965 165.199 214.131 164.751 213.259C164.619 212.944 164.567 212.6 164.598 212.26C164.631 211.921 164.748 211.593 164.937 211.309C165.12 211.025 165.372 210.791 165.67 210.631C165.968 210.469 166.3 210.385 166.639 210.387C171.845 210.387 178.175 216.892 184.459 228.696C184.624 229.003 184.74 229.222 184.824 229.334C185.098 229.804 185.513 230.515 210.137 237.715C222.161 241.238 234.258 244.638 234.378 244.663L235.471 244.973C235.471 244.973 230.808 217.281 230.771 217.281L230.37 217.124L229.113 216.628L233.602 242.958C215.07 237.755 188.038 229.881 185.975 228.507L185.706 228.008C179.074 215.524 172.469 208.93 166.613 208.93C166.033 208.932 165.463 209.079 164.951 209.356C164.441 209.632 164.008 210.029 163.688 210.514C163.368 210.998 163.172 211.555 163.12 212.132C163.066 212.71 163.156 213.293 163.382 213.827C163.863 214.791 164.426 215.71 165.068 216.575C166.181 218.119 167.164 219.751 168.009 221.457C168.374 222.28 168.133 222.659 167.867 222.914C165.585 224.965 154.509 223.643 144.46 217.657C143.848 217.292 143.28 216.88 142.675 216.447C141.965 215.918 141.226 215.432 140.459 214.99C135.139 212.034 131.474 211.159 129.565 212.384C128.516 213.058 128.053 214.279 128.187 216.027C128.628 221.751 137.446 226.434 142.102 228.519C141.659 228.701 141.261 228.981 140.937 229.334C139.843 230.555 139.73 232.567 140.601 235.314C139.685 235.899 139.027 236.811 138.758 237.864C138.441 239.245 138.915 240.761 140.164 242.375C139.308 244.444 138.932 248.304 142.78 250.614C145.509 252.249 150.527 253.529 155.376 254.724C159.02 255.642 162.471 256.505 164.631 257.449C167.59 258.739 179.898 262.353 190.76 265.542C198.513 267.819 205.838 269.969 206.956 270.468C208.413 271.131 233.741 282.35 251.27 282.35C258.16 282.35 263.848 280.616 266.409 275.824C275.366 259.012 273.678 219.908 272.218 212.242Z" fill="#161616"/>
<path d="M230.312 219.981C230.139 219.983 229.969 219.924 229.836 219.813C229.702 219.702 229.612 219.547 229.583 219.376C227.539 207.399 229.561 194.705 229.583 194.578C229.615 194.386 229.72 194.215 229.877 194.103C230.033 193.989 230.229 193.944 230.419 193.974C230.61 194.005 230.781 194.111 230.894 194.268C231.008 194.425 231.053 194.62 231.023 194.81C231.001 194.934 229.018 207.399 231.023 219.131C231.054 219.322 231.01 219.516 230.898 219.673C230.787 219.831 230.618 219.937 230.429 219.97C230.39 219.977 230.351 219.981 230.312 219.981Z" fill="#161616"/>
<path d="M150.866 231.739C150.779 231.74 150.694 231.723 150.614 231.692L143.276 228.988C143.181 228.958 143.095 228.909 143.02 228.846C142.945 228.782 142.884 228.702 142.841 228.615C142.798 228.526 142.773 228.43 142.769 228.332C142.763 228.232 142.778 228.134 142.812 228.041C142.846 227.949 142.898 227.865 142.966 227.794C143.034 227.722 143.115 227.665 143.206 227.625C143.296 227.587 143.393 227.565 143.491 227.564C143.59 227.564 143.688 227.584 143.778 227.622L151.117 230.326C151.279 230.384 151.413 230.498 151.5 230.646C151.585 230.795 151.616 230.969 151.586 231.137C151.556 231.307 151.467 231.46 151.335 231.57C151.204 231.68 151.037 231.74 150.866 231.739Z" fill="#161616"/>
<path d="M146.661 238.739C144.084 238.739 141.924 237.211 140.929 236.119C140.865 236.047 140.815 235.963 140.784 235.872C140.751 235.781 140.737 235.685 140.743 235.589C140.748 235.492 140.772 235.398 140.814 235.311C140.855 235.224 140.914 235.147 140.986 235.083C141.058 235.018 141.142 234.968 141.232 234.936C141.323 234.904 141.419 234.891 141.516 234.895C141.612 234.901 141.707 234.925 141.793 234.967C141.88 235.009 141.958 235.067 142.022 235.139C142.16 235.288 145.28 238.629 149.059 236.687C149.231 236.598 149.431 236.582 149.614 236.642C149.799 236.7 149.951 236.83 150.04 237.002C150.129 237.174 150.145 237.374 150.086 237.559C150.027 237.742 149.897 237.895 149.725 237.984C148.779 238.478 147.728 238.738 146.661 238.739Z" fill="#161616"/>
<path d="M146.136 244.783C141.683 244.783 140.434 242.706 140.372 242.597C140.293 242.432 140.279 242.243 140.332 242.067C140.386 241.892 140.504 241.743 140.663 241.652C140.822 241.56 141.01 241.531 141.188 241.572C141.367 241.611 141.524 241.718 141.628 241.869C141.676 241.934 143.272 244.222 149.605 242.962C149.794 242.924 149.992 242.962 150.154 243.07C150.315 243.177 150.426 243.343 150.465 243.534C150.503 243.724 150.464 243.921 150.357 244.083C150.249 244.243 150.082 244.355 149.893 244.394C148.656 244.646 147.398 244.777 146.136 244.783Z" fill="#161616"/>
<path d="M118.058 207.702C117.965 207.702 117.871 207.683 117.785 207.647C106.712 203.184 110.133 193.513 110.181 193.415C110.253 193.242 110.389 193.104 110.561 193.029C110.734 192.954 110.928 192.948 111.104 193.014C111.279 193.078 111.424 193.208 111.506 193.377C111.589 193.545 111.603 193.739 111.547 193.918C111.423 194.261 108.591 202.371 118.331 206.307C118.487 206.371 118.616 206.487 118.696 206.635C118.775 206.783 118.802 206.955 118.769 207.119C118.738 207.286 118.649 207.434 118.519 207.542C118.389 207.649 118.227 207.708 118.058 207.709V207.702Z" fill="#161616"/>
<path d="M90.8285 145.891H103.107L107.822 158.17L90.8285 145.891Z" fill="#8B8B8B"/>
<path d="M107.823 158.899C107.67 158.899 107.52 158.851 107.396 158.761L90.4028 146.481C90.2777 146.391 90.1853 146.263 90.1373 146.117C90.0894 145.971 90.0894 145.813 90.1361 145.667C90.1829 145.521 90.2765 145.393 90.4005 145.302C90.5244 145.212 90.6742 145.163 90.8286 145.163H103.107C103.255 145.162 103.398 145.206 103.52 145.289C103.642 145.373 103.735 145.491 103.788 145.628L108.507 157.919C108.549 158.029 108.565 158.148 108.551 158.265C108.538 158.383 108.496 158.495 108.429 158.592C108.362 158.689 108.272 158.77 108.168 158.825C108.064 158.88 107.947 158.909 107.829 158.909L107.823 158.899ZM93.0801 146.624L106.264 156.148L102.619 146.624H93.0801Z" fill="#8B8B8B"/>
<path d="M230.716 221.365L234.532 243.97L224.376 240.565L230.716 221.365Z" fill="#161616"/>
<path d="M185.801 263.818L173.674 264.561L165.833 257.806L185.801 263.818Z" fill="#161616"/>
<path d="M192.195 137.546C192.195 137.546 199.232 135.39 200.777 134.388C202.885 133.018 201.312 137.576 192.979 141.522L192.195 137.546Z" fill="#161616"/>
<path d="M282.675 63.1836C272.812 63.1836 264.785 57.0981 264.785 49.6184C264.785 49.0944 264.825 48.5728 264.905 48.0547C255.318 47.8102 247.62 41.8241 247.62 34.4965C247.62 27.5081 254.713 21.6858 263.731 21.0144C262.118 19.0506 261.226 16.5933 261.202 14.0517C261.202 6.56737 269.219 0.48305 279.097 0.48305C282.019 0.472523 284.916 1.02809 287.626 2.11934C292.63 -0.908788 300.435 -0.683053 307.649 2.73923C312.451 5.01646 316.393 8.40483 318.729 12.2856C321.126 16.2611 321.579 20.2799 320.001 23.6063C319.492 24.6776 318.788 25.6437 317.924 26.4554C324.799 29.7713 328.447 38.2276 326.461 46.6815C324.184 56.3881 315.304 62.6409 306.679 60.6151C303.554 59.8771 300.756 58.1332 298.718 55.6525C295.727 60.2677 289.569 63.1836 282.675 63.1836ZM265.791 46.6008C265.899 46.6008 266.007 46.6254 266.105 46.6733C266.204 46.7201 266.29 46.7891 266.359 46.8745C266.428 46.9611 266.476 47.0628 266.501 47.1716C266.524 47.2804 266.523 47.3927 266.497 47.5014C266.33 48.195 266.245 48.905 266.242 49.6184C266.242 56.2969 273.613 61.7262 282.675 61.7262C289.386 61.7262 295.541 58.6256 297.978 54.0056C298.037 53.8969 298.121 53.8056 298.224 53.7378C298.327 53.6711 298.446 53.6314 298.569 53.622C298.692 53.6127 298.815 53.6349 298.927 53.6863C299.039 53.7378 299.136 53.8173 299.21 53.9168C301.09 56.5577 303.864 58.4256 307.018 59.1742C314.863 60.9964 322.952 55.2501 325.05 46.3225C326.971 38.1317 323.229 29.9619 316.306 27.3139C316.185 27.2672 316.077 27.1888 315.996 27.087C315.916 26.9853 315.863 26.8625 315.845 26.7338C315.827 26.6052 315.844 26.473 315.895 26.3525C315.945 26.232 316.027 26.128 316.131 26.0496C317.228 25.2461 318.11 24.1852 318.699 22.9595C320.058 20.0881 319.633 16.557 317.493 13.0154C315.307 9.3721 311.587 6.18724 307.036 4.03048C300.113 0.750891 292.677 0.547378 288.089 3.52755C287.989 3.59305 287.873 3.63281 287.752 3.64334C287.632 3.65387 287.512 3.63398 287.4 3.58603C284.775 2.47139 281.949 1.90296 279.097 1.91699C270.035 1.91699 262.661 7.34984 262.661 14.0283C262.661 16.6003 263.753 19.06 265.808 21.1407C265.909 21.2425 265.978 21.3723 266.006 21.5127C266.034 21.653 266.02 21.7992 265.965 21.9314C265.911 22.0636 265.819 22.177 265.699 22.2577C265.581 22.3384 265.441 22.3817 265.298 22.3829C256.353 22.4671 249.077 27.8952 249.077 34.4872C249.077 41.1656 256.451 46.595 265.514 46.595H265.791V46.6008Z" fill="#161616"/>
<path d="M250.312 56.6829C249.672 56.6794 249.036 56.5881 248.421 56.4092C245.87 55.6805 244.289 53.7787 244.777 52.084C245.265 50.3892 247.63 49.6278 250.162 50.3565C251.241 50.6465 252.22 51.2208 252.997 52.022C253.769 52.8641 254.057 53.8068 253.806 54.6817C253.554 55.5565 252.808 56.2045 251.707 56.5039C251.252 56.6244 250.783 56.6852 250.312 56.6829ZM248.261 51.5237C247.146 51.5237 246.333 51.9284 246.176 52.4746C245.954 53.2395 246.989 54.4641 248.822 54.9928C249.632 55.2454 250.497 55.2782 251.325 55.0875C251.907 54.9273 252.302 54.6279 252.417 54.2676C252.524 53.9027 252.348 53.4407 251.94 52.9963C251.337 52.3927 250.581 51.9612 249.754 51.7471C249.269 51.6033 248.766 51.5284 248.261 51.5237Z" fill="#161616"/>
<path d="M301.448 19.467L295.632 12.8938L287.226 15.412L278.223 20.0179L273.22 37.5621L301.663 45.6733L306.665 28.1292L301.448 19.467Z" fill="#362BFD"/>
<path d="M301.661 46.4008C301.595 46.3997 301.527 46.3903 301.461 46.3716L273.019 38.2603C272.834 38.2065 272.677 38.0826 272.584 37.9141C272.49 37.7457 272.467 37.5469 272.521 37.3609L277.523 19.8237C277.549 19.7278 277.596 19.6378 277.658 19.5594C277.721 19.4822 277.799 19.4179 277.887 19.3711L286.89 14.7687C286.93 14.7476 286.972 14.7313 287.014 14.7172L295.427 12.192C295.561 12.1523 295.702 12.1511 295.837 12.1897C295.97 12.2271 296.089 12.3031 296.182 12.4072L302.012 18.9664C302.042 19.0003 302.067 19.0366 302.088 19.0752L307.31 27.7327C307.361 27.818 307.395 27.9139 307.408 28.0122C307.421 28.1116 307.414 28.2122 307.387 28.3081L302.35 45.871C302.322 45.9646 302.276 46.0511 302.214 46.1271C302.15 46.202 302.073 46.264 301.987 46.3084C301.886 46.3634 301.776 46.395 301.661 46.4008ZM274.119 37.058L301.163 44.7716L305.878 28.2297L300.857 19.8998L295.391 13.7055L287.495 16.0705L278.834 20.5009L274.119 37.058Z" fill="#362BFD"/>
<path d="M305.106 15.1441L286.396 9.80719L279.578 33.707L298.29 39.044L305.106 15.1441Z" fill="white"/>
<path d="M298.295 39.7586C298.228 39.7586 298.161 39.7504 298.095 39.7329L279.396 34.3983C279.211 34.3445 279.054 34.2205 278.961 34.0521C278.867 33.8836 278.844 33.6848 278.896 33.4988L285.71 9.60017C285.763 9.41537 285.888 9.25747 286.057 9.16391C286.226 9.07034 286.425 9.04811 286.61 9.10075L305.32 14.4353C305.414 14.4634 305.501 14.5102 305.576 14.5734C305.651 14.6353 305.713 14.7125 305.758 14.8003C305.852 14.9687 305.876 15.1687 305.823 15.3547L299.005 39.2533C298.959 39.403 298.863 39.5329 298.735 39.6241C298.607 39.7142 298.452 39.7621 298.295 39.7586ZM280.489 33.1959L297.796 38.1293L304.209 15.633L286.902 10.7136L280.489 33.1959Z" fill="#161616"/>
<path d="M278.223 20.0167L273.22 37.5609L301.663 45.6722L306.665 28.128L289.503 34.3842L278.223 20.0167Z" fill="#362BFD"/>
<path d="M301.661 46.4008C301.595 46.3997 301.527 46.3903 301.461 46.3716L273.019 38.2603C272.834 38.2065 272.677 38.0826 272.584 37.9141C272.49 37.7457 272.467 37.5469 272.521 37.3609L277.523 19.8237C277.559 19.6939 277.631 19.577 277.73 19.4857C277.828 19.3945 277.951 19.3325 278.083 19.3068C278.215 19.281 278.352 19.2916 278.479 19.3384C278.605 19.3851 278.715 19.4658 278.798 19.5723L289.751 33.5269L306.417 27.4496C306.543 27.404 306.679 27.3935 306.81 27.4204C306.942 27.4473 307.064 27.5093 307.162 27.6005C307.26 27.6917 307.332 27.8075 307.368 27.9373C307.404 28.066 307.404 28.2028 307.368 28.3327L302.35 45.8733C302.322 45.9669 302.276 46.0535 302.214 46.1295C302.15 46.2043 302.073 46.2663 301.987 46.3108C301.886 46.3634 301.776 46.395 301.661 46.4008ZM274.119 37.058L301.163 44.7716L305.572 29.2964L289.755 35.0638C289.61 35.1164 289.453 35.1223 289.305 35.0813C289.157 35.0392 289.026 34.9515 288.931 34.831L278.532 21.5828L274.119 37.058Z" fill="#362BFD"/>
<path d="M300.164 18.9489C300.13 18.9524 300.097 18.9524 300.063 18.9489L288.403 15.619C288.355 15.6073 288.309 15.5874 288.269 15.5582C288.23 15.5289 288.196 15.4915 288.171 15.4494C288.145 15.4073 288.129 15.3593 288.123 15.3102C288.117 15.2611 288.121 15.212 288.134 15.164C288.148 15.1161 288.171 15.0728 288.203 15.0342C288.233 14.9956 288.273 14.964 288.316 14.9418C288.361 14.9184 288.409 14.9055 288.458 14.902C288.507 14.8985 288.556 14.9044 288.603 14.9207L300.263 18.2506C300.355 18.2775 300.433 18.3395 300.481 18.4226C300.528 18.5068 300.54 18.6062 300.514 18.6986C300.491 18.7723 300.444 18.8366 300.381 18.881C300.318 18.9255 300.242 18.95 300.164 18.9489Z" fill="#161616"/>
<path d="M299.141 22.5022C299.108 22.508 299.074 22.508 299.043 22.5022L287.383 19.1723C287.29 19.1454 287.211 19.0834 287.164 19.0003C287.117 18.9161 287.106 18.8167 287.131 18.7243C287.157 18.6319 287.219 18.5535 287.303 18.5056C287.388 18.4588 287.487 18.4459 287.579 18.4717L299.257 21.8016C299.354 21.8156 299.442 21.8671 299.5 21.9443C299.559 22.0214 299.584 22.1197 299.57 22.2168C299.557 22.3138 299.506 22.4004 299.428 22.4589C299.35 22.5174 299.252 22.5431 299.155 22.5291L299.141 22.5022Z" fill="#161616"/>
<path d="M298.03 26.4005C297.997 26.404 297.963 26.404 297.93 26.4005L286.272 23.0706C286.225 23.0577 286.182 23.0355 286.144 23.0063C286.107 22.9758 286.075 22.9396 286.052 22.8975C286.028 22.8554 286.013 22.8098 286.007 22.7618C286.003 22.7139 286.006 22.6659 286.02 22.6191C286.047 22.5267 286.109 22.4495 286.193 22.4027C286.276 22.356 286.376 22.3454 286.468 22.3712L298.128 25.6975C298.176 25.7046 298.222 25.7209 298.264 25.7443C298.305 25.7689 298.341 25.8016 298.37 25.8402C298.399 25.8788 298.421 25.9221 298.433 25.9689C298.445 26.0157 298.447 26.0648 298.442 26.1127C298.435 26.1607 298.418 26.2063 298.394 26.2484C298.369 26.2905 298.337 26.3268 298.299 26.356C298.26 26.3853 298.216 26.4063 298.169 26.418C298.122 26.4297 298.073 26.4332 298.025 26.4262L298.03 26.4005Z" fill="#161616"/>
<path d="M114.772 145.89H26.3467L15.4155 110.719H103.84L114.772 145.89Z" fill="#A2A2A2"/>
<path d="M114.772 146.624H26.3467C26.1911 146.622 26.039 146.573 25.9139 146.481C25.7887 146.389 25.6964 146.258 25.6507 146.109L14.7195 110.941C14.6856 110.831 14.6774 110.715 14.6962 110.603C14.7149 110.49 14.7605 110.383 14.8271 110.291C14.895 110.198 14.9839 110.124 15.0856 110.072C15.1874 110.021 15.3008 109.994 15.4155 109.994H103.84C103.996 109.994 104.148 110.043 104.273 110.135C104.398 110.229 104.491 110.359 104.536 110.507L115.468 145.676C115.501 145.785 115.51 145.901 115.491 146.013C115.472 146.127 115.428 146.233 115.36 146.325C115.292 146.418 115.203 146.493 115.101 146.545C114.999 146.597 114.886 146.624 114.772 146.624ZM26.8894 145.165H113.78L103.301 111.451H16.4038L26.8894 145.165Z" fill="#A2A2A2"/>
<path d="M89.6998 74.3405H10.5148L0.728638 42.844H79.9125L89.6998 74.3405Z" fill="#362BFD"/>
<path d="M89.6987 75.0692H10.5148C10.3592 75.0692 10.2072 75.0189 10.082 74.9265C9.95689 74.8341 9.86449 74.7043 9.81888 74.5557L0.0327408 43.0592C-0.00117794 42.9505 -0.00819561 42.8347 0.0105182 42.7224C0.029232 42.6101 0.0748468 42.5037 0.142684 42.4113C0.210522 42.32 0.298243 42.2452 0.399999 42.1937C0.501755 42.1423 0.614038 42.1154 0.72866 42.1154H79.9125C80.0681 42.1154 80.219 42.1645 80.3441 42.2557C80.4693 42.3481 80.5617 42.4768 80.6085 42.6253L90.3958 74.1136C90.4297 74.2224 90.4379 74.3382 90.418 74.4504C90.3993 74.5627 90.3537 74.6692 90.2858 74.7616C90.2191 74.8551 90.1314 74.9312 90.0297 74.985C89.9279 75.0399 89.8145 75.068 89.6987 75.0692ZM11.0505 73.6118H88.7115L79.3581 43.5727H1.71581L11.0505 73.6118Z" fill="#362BFD"/>
<path d="M140.226 113.783H32.6251L19.322 70.9849H126.923L140.226 113.783Z" fill="#E8E3EA"/>
<path d="M140.226 114.512H32.6251C32.4696 114.512 32.3187 114.462 32.1935 114.37C32.0684 114.279 31.976 114.149 31.9292 114.001L18.626 71.1989C18.5921 71.0902 18.5839 70.9744 18.6038 70.8621C18.6225 70.7498 18.6681 70.6422 18.736 70.551C18.8038 70.4586 18.8915 70.3837 18.9933 70.3311C19.095 70.2796 19.2073 70.2515 19.322 70.2515H126.923C127.078 70.2515 127.23 70.3018 127.355 70.3942C127.481 70.4866 127.573 70.6165 127.619 70.765L140.937 113.568C140.971 113.677 140.978 113.793 140.959 113.905C140.941 114.017 140.895 114.125 140.827 114.216C140.758 114.31 140.667 114.386 140.563 114.437C140.457 114.489 140.343 114.514 140.226 114.512ZM33.1608 113.053H139.235L126.387 71.7124H20.3091L33.1608 113.053Z" fill="#E8E3EA"/>
<path d="M75.1393 56.4419H40.2545C40.1574 56.4419 40.065 56.4033 39.9972 56.3355C39.9293 56.2677 39.8907 56.1741 39.8907 56.0782C39.8907 55.9811 39.9293 55.8887 39.9972 55.8209C40.065 55.753 40.1586 55.7144 40.2545 55.7144H75.1393C75.2364 55.7144 75.3288 55.753 75.3966 55.8209C75.4645 55.8887 75.5031 55.9823 75.5031 56.0782C75.5031 56.1753 75.4645 56.2677 75.3966 56.3355C75.3288 56.4045 75.2352 56.4419 75.1393 56.4419Z" fill="white"/>
<path d="M75.1393 63.6608H51.9763C51.8792 63.6608 51.7868 63.6222 51.719 63.5543C51.6511 63.4865 51.6125 63.3929 51.6125 63.297C51.6125 63.2011 51.6511 63.1075 51.719 63.0397C51.7868 62.9719 51.8804 62.9333 51.9763 62.9333H75.1393C75.2364 62.9333 75.3288 62.9719 75.3966 63.0397C75.4644 63.1075 75.503 63.2011 75.503 63.297C75.503 63.3929 75.4644 63.4865 75.3966 63.5543C75.3288 63.6222 75.2352 63.6608 75.1393 63.6608Z" fill="white"/>
<path d="M98.3059 125.745H64.2632C64.1661 125.745 64.0737 125.706 64.0058 125.638C63.938 125.569 63.8994 125.477 63.8994 125.381C63.8994 125.284 63.938 125.192 64.0058 125.123C64.0737 125.055 64.1673 125.016 64.2632 125.016H98.3059C98.403 125.016 98.4954 125.055 98.5632 125.123C98.631 125.192 98.6696 125.284 98.6696 125.381C98.6696 125.477 98.631 125.569 98.5632 125.638C98.4954 125.706 98.4018 125.745 98.3059 125.745Z" fill="#161616"/>
<path d="M102.281 133.644H59.1612C59.0642 133.644 58.9718 133.606 58.9039 133.538C58.8361 133.469 58.7975 133.377 58.7975 133.28C58.7975 133.184 58.8361 133.091 58.9039 133.022C58.9718 132.954 59.0653 132.916 59.1612 132.916H102.28C102.377 132.916 102.47 132.954 102.537 133.022C102.605 133.091 102.644 133.184 102.644 133.28C102.644 133.377 102.605 133.469 102.537 133.538C102.47 133.606 102.377 133.644 102.281 133.644Z" fill="#161616"/>
<path d="M37.7001 100.377C40.2089 98.2158 42.6791 95.9982 45.1072 93.7245C47.133 91.8075 49.512 89.8952 51.1226 87.6062C51.8512 86.5793 52.8828 84.1676 51.1226 83.4927C49.4173 82.8366 47.8067 85.0705 47.0453 86.2296C45.533 88.5396 44.4242 91.0905 43.7657 93.7713C43.354 95.4403 42.3996 98.4719 43.7072 99.9655C45.0148 101.46 47.1903 100.556 48.6594 99.9913C50.9495 99.1351 53.1401 98.0357 55.1963 96.7117C57.8162 94.9958 61.9005 91.7607 61.2561 88.1022C61.0888 87.1548 60.2537 86.3279 59.2525 86.7945C57.5145 87.6027 56.8548 90.7151 56.7016 92.3654C56.5928 93.714 56.2092 96.2859 57.408 97.2801C57.6396 97.4743 57.9203 97.5971 58.2198 97.6368C58.518 97.6754 58.8221 97.6298 59.0958 97.5023C59.766 97.2298 60.5531 95.9725 61.2385 96.0274C61.8537 96.0777 62.4152 97.2438 63.1263 97.5281C63.9859 97.8743 64.7953 97.6088 65.6257 97.3093C67.4106 96.6684 68.5404 96.1 70.4785 96.6579C71.7323 97.0216 72.9229 97.5865 74.2282 97.7503C75.3745 97.9503 76.5534 97.6883 77.5078 97.0216C77.9558 96.6871 78.2763 96.231 78.7289 95.9C79.5851 95.2766 80.4447 95.2953 81.4108 95.397C83.8272 95.6485 86.253 95.8157 88.6764 95.9467C93.5373 96.2169 98.514 96.5082 103.371 96.0274C104.06 95.9584 104.067 94.8719 103.371 94.9339C96.955 95.5713 90.287 95.0578 83.8775 94.5327C82.5945 94.4274 81.0716 94.0309 79.7968 94.2309C79.1289 94.3502 78.502 94.6368 77.9745 95.0649C76.7534 96.0345 76.0435 96.8649 74.3312 96.6544C72.3709 96.4099 70.6223 95.2251 68.6071 95.273C66.2024 95.328 63.9216 97.8778 62.1871 95.0111C62.1403 94.9292 62.0725 94.8602 61.9906 94.8134C61.9087 94.7654 61.8163 94.7409 61.7216 94.7409C61.0397 94.7947 60.3964 95.0824 59.8993 95.5537C59.4479 95.9175 58.5589 97.128 57.8548 95.9362C57.5999 95.5023 57.7601 94.3327 57.7636 93.8227C57.7227 92.5537 57.9028 91.2882 58.2958 90.0811C58.3905 89.8367 59.1297 88.0694 59.5566 88.0331C60.566 87.9489 60.187 89.2683 60.0783 89.7092C58.9414 94.4461 52.4594 97.3795 48.3892 98.9421C46.5669 99.6451 44.5704 100.458 44.2429 97.6193C44.0756 96.162 44.7423 94.245 45.1575 92.8648C45.6265 91.3151 46.2523 89.818 47.0266 88.3969C47.3213 87.8507 47.6383 87.3045 47.9845 86.791C48.064 86.6706 50.5717 83.1465 50.9506 85.5372C51.1401 86.7536 48.7974 88.6308 48.036 89.3852C46.8991 90.5139 45.7505 91.6309 44.5891 92.7338C42.0967 95.0941 39.5457 97.3912 36.9375 99.624C36.4088 100.079 37.1784 100.84 37.7059 100.389L37.7001 100.377Z" fill="#161616"/>
<path fill-rule="evenodd" clip-rule="evenodd" d="M24.7361 61.6093C23.2168 63.0818 21.2156 63.9579 19.1021 64.0737C16.9886 64.1895 14.9044 63.538 13.233 62.2397C13.2143 62.0701 13.2037 61.9005 13.2037 61.7298C13.2037 58.9028 15.7874 56.6291 18.9711 56.6291C22.1571 56.6279 24.6671 58.8361 24.7361 61.6093Z" fill="#A2A2A2"/>
<path d="M18.6225 64.4514C16.5897 64.4585 14.6131 63.7813 13.0107 62.5274L12.8692 62.4187V62.2397C12.8493 62.0689 12.84 61.8982 12.84 61.7262C12.84 58.7051 15.5909 56.2607 18.9722 56.2607C22.2776 56.2607 25.0285 58.6619 25.101 61.6163V61.773L24.9876 61.8853C23.2811 63.538 20.9968 64.4585 18.6225 64.4514ZM13.5827 62.0467C15.164 63.228 17.109 63.8175 19.0798 63.7099C21.0506 63.6023 22.9208 62.8058 24.3641 61.4596C24.2074 58.9706 21.8132 56.9741 18.9711 56.9741C15.9909 56.9741 13.5675 59.1051 13.5675 61.711C13.5675 61.8233 13.5721 61.9356 13.5827 62.0467Z" fill="white"/>
<path d="M13.6891 63.0514L13.0119 62.5227C11.5382 61.3789 10.4505 59.8116 9.89255 58.0314C9.33464 56.2513 9.33347 54.3437 9.89021 52.5635C10.4469 50.7834 11.5347 49.2149 13.0061 48.0699C14.4786 46.9248 16.2658 46.257 18.1278 46.1552C19.9898 46.0534 21.8401 46.5236 23.4273 47.5026C25.0156 48.4816 26.2659 49.9214 27.0133 51.6313C27.7595 53.3401 27.9666 55.2372 27.6051 57.0677C27.2437 58.8981 26.3314 60.5742 24.9911 61.8713L24.3934 62.4537L24.3712 61.6268C24.3057 59.0759 21.8857 56.9811 18.9711 56.9811C15.9909 56.9811 13.5675 59.1133 13.5675 61.7181C13.5675 61.8748 13.5757 62.0315 13.5932 62.1882L13.6891 63.0514ZM18.6225 46.8663C16.9313 46.864 15.2798 47.3716 13.8809 48.3202C12.4821 49.2699 11.4013 50.6173 10.7779 52.1892C10.1545 53.7612 10.0189 55.484 10.3885 57.1332C10.7569 58.7835 11.6142 60.2841 12.847 61.4409C13.0224 58.5554 15.7032 56.256 18.9722 56.256C21.9711 56.256 24.5068 58.2303 25.0133 60.7999C26.3338 59.2747 27.0578 57.3227 27.0496 55.3051C27.0496 53.0688 26.1618 50.9237 24.5817 49.3412C23.0027 47.7599 20.8588 46.8698 18.6225 46.8663Z" fill="white"/>
<path d="M18.9722 56.6069C21.0273 56.6069 22.6928 55.2524 22.6928 53.5822C22.6928 51.912 21.0273 50.5576 18.9722 50.5576C16.9172 50.5576 15.2517 51.912 15.2517 53.5822C15.2517 55.2524 16.9172 56.6069 18.9722 56.6069Z" fill="#161616"/>
<path d="M18.9723 56.9893C16.7208 56.9893 14.888 55.47 14.888 53.601C14.888 51.7319 16.7103 50.2161 18.9723 50.2161C21.2343 50.2161 23.0566 51.7354 23.0566 53.601C23.0566 55.4665 21.2238 56.9893 18.9723 56.9893ZM18.9723 50.9448C17.1208 50.9448 15.6167 52.1366 15.6167 53.601C15.6167 55.0653 17.122 56.2607 18.9723 56.2607C20.8226 56.2607 22.3279 55.0688 22.3279 53.601C22.3279 52.1331 20.8226 50.9261 18.9723 50.9261V50.9448Z" fill="white"/>
<path fill-rule="evenodd" clip-rule="evenodd" d="M42.7762 133.98C41.2545 135.454 39.251 136.329 37.1351 136.442C35.0193 136.557 32.9339 135.902 31.2625 134.599C31.2438 134.428 31.2333 134.257 31.2333 134.085C31.2333 131.257 33.8169 128.984 37.0006 128.984C40.1855 128.984 42.7072 131.207 42.7762 133.98Z" fill="#E8E3EA"/>
<path d="M36.6627 136.822C34.6287 136.829 32.6521 136.152 31.0509 134.898L30.9269 134.804V134.65C30.9059 134.467 30.8942 134.282 30.8942 134.096C30.8942 131.076 33.6451 128.63 37.0264 128.63C40.3318 128.63 43.0827 131.032 43.1552 133.984V134.144L43.0429 134.256C41.3318 135.912 39.0428 136.833 36.6627 136.822ZM31.6263 134.418C33.2077 135.599 35.1539 136.188 37.1259 136.081C39.0978 135.973 40.968 135.177 42.4125 133.83C42.2558 131.342 39.8616 129.345 37.0194 129.345C34.0392 129.345 31.6158 131.476 31.6158 134.082C31.6263 134.202 31.6263 134.308 31.6263 134.418Z" fill="#161616"/>
<path d="M31.728 135.426L31.0508 134.898C29.5747 133.754 28.4847 132.188 27.9244 130.408C27.3642 128.628 27.3618 126.719 27.9162 124.937C28.4706 123.154 29.5572 121.585 31.0297 120.437C32.5023 119.29 34.2894 118.62 36.1526 118.517C38.0158 118.414 39.8673 118.883 41.4568 119.861C43.0463 120.838 44.299 122.278 45.0475 123.988C45.7961 125.698 46.0043 127.596 45.6429 129.427C45.2826 131.258 44.3715 132.936 43.0311 134.235L42.4334 134.811L42.4112 133.98C42.3457 131.429 39.9258 129.338 37.0111 129.338C34.031 129.338 31.6075 131.469 31.6075 134.075C31.6075 134.233 31.6157 134.391 31.6332 134.549L31.728 135.426ZM36.6626 119.237C34.9713 119.236 33.3198 119.742 31.921 120.691C30.5221 121.641 29.4414 122.989 28.818 124.56C28.1946 126.132 28.0589 127.855 28.4285 129.505C28.7969 131.154 29.6543 132.655 30.887 133.812C31.0578 130.93 33.7397 128.627 37.0123 128.627C40.0112 128.627 42.5504 130.602 43.0533 133.171C44.3808 131.648 45.1107 129.696 45.1083 127.676C45.1083 126.567 44.8896 125.469 44.4651 124.445C44.0405 123.421 43.4183 122.49 42.6334 121.706C41.8486 120.923 40.9176 120.302 39.893 119.878C38.8685 119.454 37.7714 119.236 36.6626 119.237Z" fill="#161616"/>
<path d="M37.0124 128.98C39.0674 128.98 40.7329 127.627 40.7329 125.957C40.7329 124.286 39.0674 122.932 37.0124 122.932C34.9574 122.932 33.2919 124.286 33.2919 125.957C33.2919 127.627 34.9574 128.98 37.0124 128.98Z" fill="white"/>
<path d="M37.0124 129.345C34.7609 129.345 32.9281 127.822 32.9281 125.957C32.9281 124.091 34.7504 122.567 37.0124 122.567C39.2756 122.567 41.0967 124.088 41.0967 125.957C41.0967 127.826 39.2779 129.345 37.0124 129.345ZM37.0124 123.297C35.1609 123.297 33.6568 124.488 33.6568 125.957C33.6568 127.425 35.1621 128.616 37.0124 128.616C38.8639 128.616 40.368 127.421 40.368 125.957C40.368 124.491 38.8627 123.304 37.0124 123.304V123.297Z" fill="#161616"/>
<path fill-rule="evenodd" clip-rule="evenodd" d="M120.897 91.4402C119.378 92.9151 117.378 93.7911 115.263 93.9081C113.149 94.0251 111.065 93.3736 109.394 92.0742C109.374 91.9034 109.365 91.7315 109.365 91.5607C109.365 88.7326 111.947 86.4589 115.132 86.4589C118.317 86.4589 120.813 88.6671 120.897 91.4402Z" fill="#362BFD"/>
<path d="M114.772 94.2859C112.738 94.2929 110.761 93.6145 109.16 92.3619L109.036 92.2671V92.1139C109.015 91.9303 109.004 91.7455 109.003 91.5607C109.003 88.5396 111.754 86.0951 115.135 86.0951C118.517 86.0951 121.185 88.4449 121.264 91.4437V91.604L121.152 91.7174C119.442 93.3736 117.152 94.2964 114.772 94.2859ZM109.728 91.8812C111.31 93.0636 113.257 93.652 115.228 93.5444C117.2 93.4356 119.071 92.6379 120.513 91.2905C120.353 88.8051 117.964 86.8086 115.121 86.8086C112.14 86.8086 109.718 88.9408 109.718 91.5455C109.718 91.666 109.721 91.7712 109.728 91.8812Z" fill="#161616"/>
<path d="M109.838 92.8859L109.16 92.3619C107.686 91.218 106.597 89.6519 106.038 87.8717C105.479 86.0928 105.477 84.1851 106.032 82.4038C106.588 80.6237 107.674 79.054 109.146 77.909C110.618 76.7628 112.404 76.0938 114.267 75.9908C116.13 75.8879 117.979 76.3569 119.568 77.3347C121.157 78.3125 122.408 79.7523 123.155 81.4611C123.904 83.1699 124.111 85.067 123.751 86.8975C123.39 88.7279 122.479 90.404 121.14 91.7022L120.532 92.2777L120.51 91.4508C120.444 88.8998 118.022 86.8086 115.11 86.8086C112.129 86.8086 109.707 88.9396 109.707 91.5455C109.706 91.7034 109.715 91.8613 109.732 92.0192L109.838 92.8859ZM114.772 76.7043C113.08 76.702 111.429 77.2096 110.03 78.1581C108.631 79.1078 107.549 80.4552 106.927 82.0272C106.304 83.598 106.168 85.3208 106.538 86.9711C106.906 88.6203 107.763 90.1221 108.996 91.2777C109.167 88.3922 111.849 86.0893 115.121 86.0893C118.167 86.0893 120.666 88.025 121.162 90.6262C122.481 89.1022 123.203 87.1536 123.195 85.1384C123.196 82.9032 122.31 80.7582 120.73 79.1769C119.151 77.5967 117.007 76.7066 114.772 76.7043Z" fill="#161616"/>
<path d="M115.118 86.4448C117.172 86.4448 118.837 85.0904 118.837 83.4202C118.837 81.75 117.172 80.3968 115.118 80.3968C113.063 80.3968 111.397 81.7512 111.397 83.4202C111.397 85.0904 113.063 86.4448 115.118 86.4448Z" fill="white"/>
<path d="M115.118 86.8086C112.865 86.8086 111.032 85.2892 111.032 83.4202C111.032 81.5512 112.855 80.0318 115.118 80.0318C117.38 80.0318 119.206 81.5512 119.206 83.4202C119.206 85.2892 117.373 86.8086 115.118 86.8086ZM115.118 80.7605C113.266 80.7605 111.762 81.9558 111.762 83.4202C111.762 84.8857 113.266 86.0799 115.118 86.0799C116.968 86.0799 118.477 84.8857 118.477 83.4202C118.477 81.9558 116.968 80.7605 115.118 80.7605Z" fill="#161616"/>
<g opacity="0.25">
<path d="M250.169 220.083L249.9 219.836C255.049 214.289 253.683 208.026 252.476 202.503C251.161 196.483 250.028 191.284 257.402 188.638C259.902 187.743 262.074 187.968 263.863 189.312C268.705 192.955 269.802 204.193 269.215 213.499L268.85 213.477C269.434 204.266 268.37 193.157 263.644 189.603C261.961 188.339 259.902 188.129 257.526 188.981C250.454 191.531 251.554 196.574 252.834 202.426C254.057 208.038 255.442 214.396 250.169 220.083Z" fill="#161616"/>
</g>
<g opacity="0.25">
<path d="M209.776 236.315C209.729 232.617 209.948 227.181 210.542 223.374C211.314 218.414 211.918 209.407 207.302 204.791C203.659 201.177 196.181 198.913 189.889 199.533C186.526 199.861 181.913 201.154 179.031 205.439C176.48 209.251 176.277 214.242 178.528 218.473L178.208 218.647C175.89 214.297 176.091 209.174 178.728 205.235C181.691 200.834 186.413 199.508 189.852 199.168C196.24 198.545 203.855 200.848 207.557 204.536C212.054 209.014 211.856 217.288 210.898 223.417C210.308 227.203 210.093 232.614 210.141 236.294L209.776 236.315Z" fill="#161616"/>
</g>
<g opacity="0.25">
<path d="M176.189 199.792C172.005 199.792 167.649 197.539 165.16 195.999C163.983 195.27 161.661 193.991 159.305 193.568L159.367 193.203C161.785 193.637 164.154 194.941 165.349 195.685C168.341 197.532 174.065 200.422 178.83 199.07C181.257 198.374 183.174 196.643 184.521 193.922C188.731 185.424 181.607 181.07 174.728 176.858C171.583 174.934 168.614 173.117 166.82 170.963C166.65 170.774 162.554 166.135 163.585 162.549C164.03 161.009 165.367 159.905 167.554 159.271C170.509 158.479 173.651 158.778 176.404 160.115C179.774 161.682 185.859 163.689 188.752 159.533C190.724 156.698 189.627 152.908 188.359 150.231L188.686 150.078C189.995 152.842 191.12 156.763 189.051 159.74C186.004 164.113 179.724 162.061 176.251 160.444C173.577 159.144 170.526 158.852 167.656 159.62C165.597 160.213 164.343 161.231 163.935 162.647C162.958 166.037 167.054 170.664 167.094 170.722C168.854 172.836 171.798 174.636 174.918 176.552C181.614 180.648 189.208 185.297 184.85 194.085C183.455 196.905 181.462 198.702 178.929 199.423C178.037 199.675 177.115 199.799 176.189 199.792Z" fill="#161616"/>
</g>
<g opacity="0.25">
<path d="M160.788 184.226C159.355 184.226 155.875 183.34 149.051 177.179L149.295 176.91C158.404 185.133 161.41 183.778 161.439 183.764H161.487C164.012 183.231 165.385 182.022 165.454 180.262C165.585 177.034 161.064 172.169 153.536 169.942L153.638 169.578C161.334 171.856 165.954 176.894 165.819 180.262C165.742 182.174 164.238 183.541 161.582 184.102C161.328 184.196 161.058 184.238 160.788 184.226Z" fill="#161616"/>
</g>
<g opacity="0.25">
<path d="M211.128 194.687C206.894 194.687 201.866 192.993 199.807 192.297C196.677 191.243 192.76 188.897 192.024 185.738C191.54 183.686 192.417 181.523 194.626 179.314C198.018 175.911 200.212 173.583 199.811 172.264C199.471 171.17 197.261 170.511 193.847 169.83C192.231 169.509 191.405 168.995 191.325 168.263C191.084 166.139 197.668 163.019 205.028 159.741C205.925 159.34 206.752 158.971 207.459 158.647C211.832 156.632 214.018 154.377 214.953 153.211C215.4 152.634 215.879 152.083 216.386 151.561C217.997 149.931 219.064 148.321 219.644 146.638L219.985 146.755C219.389 148.493 218.295 150.147 216.648 151.816C216.148 152.329 215.677 152.871 215.238 153.437C214.299 154.628 212.058 156.931 207.612 158.975C206.883 159.303 206.077 159.671 205.178 160.068C200.044 162.361 191.456 166.197 191.696 168.252C191.758 168.791 192.531 169.225 193.93 169.501C197.573 170.231 199.778 170.898 200.172 172.187C200.616 173.645 198.816 175.667 194.892 179.599C192.779 181.716 191.937 183.764 192.388 185.683C193.092 188.678 196.892 190.938 199.935 191.965C202.809 192.934 211.555 195.882 215.537 193.32C216.681 192.592 217.358 191.426 217.501 189.884C217.671 187.659 217.701 185.427 217.592 183.199C217.515 180.207 217.435 177.117 217.825 173.835C218.258 170.36 219.452 167.023 221.322 164.063C223.193 161.102 225.694 158.591 228.646 156.709C229.492 156.167 230.396 155.561 231.328 154.913L231.536 155.211C230.599 155.864 229.693 156.468 228.844 157.033C225.937 158.882 223.475 161.349 221.633 164.259C219.79 167.169 218.612 170.45 218.182 173.867C217.792 177.121 217.873 180.2 217.949 183.176C218.058 185.421 218.027 187.67 217.858 189.91C217.687 191.568 216.969 192.824 215.727 193.615C214.483 194.406 212.888 194.687 211.128 194.687Z" fill="#161616"/>
</g>
<g opacity="0.25">
<path d="M224.963 236.045C224.113 236.052 223.268 235.892 222.48 235.571C221.692 235.252 220.975 234.781 220.369 234.184C217.202 231.068 216.841 225.041 219.618 221.536C223.921 216.104 227.477 206.794 225.721 198.239C225.673 198.013 225.604 197.718 225.516 197.357C224.912 194.807 223.647 189.52 224.508 183.606C225.601 176.242 229.609 170.554 236.418 166.695C239.652 164.889 242.745 162.843 245.67 160.571L245.896 160.855C242.959 163.142 239.853 165.205 236.608 167.028C226.11 172.952 222.5 183.132 225.878 197.27C225.969 197.634 226.038 197.937 226.085 198.163C227.984 207.428 223.947 216.665 219.891 221.758C217.224 225.129 217.566 230.927 220.62 233.921C223.48 236.734 227.798 236.152 232.468 232.322L232.699 232.603C229.528 235.215 226.953 236.045 224.963 236.045Z" fill="#161616"/>
</g>
<g opacity="0.25">
<path d="M236.583 219.427L236.306 219.19C242.237 212.267 244.223 205.21 242.748 196.359C240.528 183.121 251.027 176.388 251.492 176.107L251.533 176.082C253.121 175.087 255.785 173.418 257.69 170.438L257.996 170.635C256.047 173.685 253.344 175.372 251.726 176.391L251.689 176.414C251.249 176.691 240.948 183.3 243.122 196.301C244.602 205.264 242.595 212.394 236.583 219.427Z" fill="#161616"/>
</g>
</g>
<defs>
<clipPath id="clip0_124_600">
<rect width="327" height="282.35" fill="white"/>
</clipPath>
</defs>
</svg>
