<svg width="327" height="319" viewBox="0 0 327 319" fill="none" xmlns="http://www.w3.org/2000/svg">
<g clip-path="url(#clip0_124_319)">
<path d="M22.7394 302.243C22.6324 302.243 22.5388 302.163 22.5255 302.049C22.5121 301.929 22.599 301.821 22.7193 301.808L42.8251 299.499C42.9521 299.478 43.0524 299.572 43.0657 299.693C43.0791 299.813 42.9922 299.92 42.8719 299.934L22.7661 302.243C22.7527 302.243 22.746 302.243 22.7394 302.243Z" fill="#161616"/>
<path d="M0.213892 266.703C0.0935775 266.703 0 266.609 0 266.489C0 266.368 0.0935775 266.268 0.213892 266.268C71.7539 265.839 145.567 252.256 194.895 240.93C248.335 228.659 285.331 216.335 285.699 216.207C285.813 216.167 285.933 216.227 285.973 216.348C286.013 216.462 285.946 216.582 285.833 216.622C285.465 216.743 248.448 229.081 194.989 241.351C145.647 252.685 71.8007 266.274 0.213892 266.703C0.220576 266.703 0.220576 266.703 0.213892 266.703Z" fill="#161616"/>
<path d="M26.5025 318.798C26.3822 318.798 26.2886 318.705 26.2886 318.584C26.2886 318.464 26.3822 318.363 26.5025 318.363C98.0425 317.935 171.855 304.352 221.177 293.025C274.623 280.754 311.62 268.43 311.987 268.303C312.101 268.269 312.221 268.323 312.262 268.437C312.302 268.551 312.235 268.671 312.128 268.711C311.76 268.832 274.744 281.169 221.284 293.44C171.929 304.78 98.0826 318.377 26.5025 318.798Z" fill="#161616"/>
<path d="M164.703 112.806C164.703 112.806 162.537 115.417 163.781 117.399C165.024 119.38 171.534 115.866 171.534 115.866L164.703 112.806Z" fill="#161616"/>
<path d="M210.877 93.3527C210.877 93.3527 204.433 87.5018 205.476 85.8818C206.76 83.8869 210.864 87.9638 210.864 87.9638C210.864 87.9638 212.682 84.0676 211.372 80.5598C210.061 77.0453 214.513 77.7214 214.867 85.3463C214.867 85.3463 215.148 82.6618 214.547 78.9799C213.938 75.2981 218.397 77.1725 218.036 85.5404C218.036 85.5404 218.824 84.7036 219.112 81.9991C219.399 79.2946 223.63 81.7112 220.074 92.9644L210.877 93.3527Z" fill="white"/>
<path d="M210.877 93.5669C210.823 93.5669 210.77 93.5469 210.73 93.5134C210.055 92.9042 204.186 87.4885 205.289 85.768C206.405 84.0275 209.273 86.1898 210.777 87.5956C211.151 86.645 212.22 83.4919 211.158 80.6401C210.456 78.7657 211.325 78.0427 212.227 78.3975C212.942 78.6787 214.065 79.81 214.674 82.3338C214.627 81.3832 214.526 80.2586 214.319 79.0201C214.012 77.1725 214.928 76.6771 215.763 77.1256C217.013 77.8084 218.276 80.4393 218.263 84.6768C218.483 84.148 218.744 83.2911 218.885 81.979C219.012 80.7539 219.887 80.4594 220.576 81.1154C221.799 82.287 222.454 86.1161 220.268 93.0314C220.241 93.1184 220.161 93.1787 220.068 93.1854L210.884 93.5736C210.884 93.5669 210.884 93.5669 210.877 93.5669ZM205.657 86.0023C204.982 87.0533 208.524 90.9093 210.957 93.1318L219.9 92.7569C222.113 85.6609 221.184 82.3003 220.275 81.4301C219.76 80.9414 219.392 81.3297 219.319 82.0259C219.025 84.7706 218.216 85.6542 218.183 85.6944C218.049 85.8416 217.795 85.7345 217.808 85.5337C218.022 80.6602 216.578 78.0695 215.556 77.5139C214.754 77.0787 214.6 78.0427 214.747 78.9532C215.349 82.6217 215.075 85.353 215.075 85.3797C215.061 85.4935 214.988 85.5806 214.854 85.5739C214.74 85.5739 214.647 85.4802 214.647 85.3664C214.44 80.8945 212.875 79.1205 212.073 78.8059C211.204 78.4645 211.231 79.5824 211.565 80.4929C212.896 84.0476 211.131 87.9035 211.051 88.0709C210.984 88.2048 210.81 88.2382 210.703 88.1311C209.513 86.9194 206.572 84.5764 205.657 86.0023Z" fill="#161616"/>
<path d="M119.158 99.1366C119.158 99.1366 126.209 94.0355 125.354 92.3151C124.298 90.193 119.772 93.7879 119.772 93.7879C119.772 93.7879 118.396 89.7177 120.087 86.3705C121.778 83.0233 117.273 83.2041 116.083 90.7419C116.083 90.7419 116.096 88.0441 117.106 84.4492C118.115 80.8544 113.476 82.22 112.915 90.5813C112.915 90.5813 112.226 89.6641 112.233 86.9462C112.246 84.2283 107.494 87.3211 109.786 98.9023L119.158 99.1366Z" fill="white"/>
<path d="M119.158 99.3575L109.786 99.1166C109.686 99.1166 109.599 99.0429 109.579 98.9425C107.975 90.8423 109.8 86.9864 110.983 86.076C111.718 85.5136 112.46 85.8417 112.453 86.9462C112.447 88.265 112.614 89.1487 112.774 89.6976C113.229 85.4869 114.773 83.0099 116.09 82.4677C116.965 82.1062 117.821 82.702 117.313 84.5095C116.972 85.7145 116.751 86.8257 116.598 87.7629C117.48 85.3262 118.716 84.322 119.458 84.1279C120.394 83.8735 121.176 84.6902 120.274 86.4776C118.897 89.1955 119.619 92.449 119.886 93.4331C121.537 92.2013 124.625 90.3737 125.541 92.2281C126.45 94.0623 120.013 98.7952 119.278 99.3241C119.251 99.3442 119.204 99.3575 119.158 99.3575ZM109.974 98.6881L119.097 98.9224C121.764 96.9811 125.721 93.5402 125.167 92.4155C125.026 92.1343 124.812 91.967 124.512 91.9C122.961 91.5586 119.94 93.9418 119.913 93.9619C119.793 94.0556 119.619 94.0021 119.572 93.8615C119.512 93.6941 118.188 89.6641 119.9 86.2768C120.334 85.4132 120.481 84.3087 119.585 84.543C118.757 84.7639 117.005 86.3571 116.303 90.7754C116.257 91.0432 115.869 91.003 115.869 90.7419C115.869 90.7151 115.896 87.9705 116.898 84.389C117.152 83.4986 117.099 82.5213 116.257 82.8694C115.181 83.3112 113.463 85.7279 113.135 90.5946C113.122 90.7955 112.861 90.8691 112.748 90.7084C112.714 90.6683 112.012 89.6976 112.026 86.9395C112.026 86.3036 111.772 86.0224 111.257 86.4174C109.967 87.4014 108.583 91.4783 109.974 98.6881Z" fill="#161616"/>
<path d="M83.4444 300.563L71.921 309.721C71.2125 310.276 70.1898 310.163 69.6283 309.453L66.694 305.751C66.4868 305.49 66.3665 305.135 66.3531 304.754L66.1727 300.108C66.1526 299.565 65.8184 299.144 65.4174 299.15L61.9684 299.217C61.6876 299.224 61.4136 299.083 61.213 298.829L46.1738 279.851C45.6591 279.201 45.7059 278.184 46.2607 277.575C49.2819 274.268 53.6065 273.826 56.9018 276.825C63.8466 282.522 61.4537 280.554 61.9684 280.982L66.5135 278.88L83.4444 300.563Z" fill="#EA4335"/>
<path d="M69.4546 309.594L66.5202 305.892C66.2863 305.597 66.1526 305.195 66.1326 304.767L65.9521 300.121C65.932 299.706 65.678 299.358 65.4174 299.371L61.9684 299.438C61.9617 299.438 61.955 299.438 61.9483 299.438C61.6074 299.438 61.2799 299.271 61.0393 298.97L46 279.991C45.4252 279.268 45.472 278.117 46.1003 277.434C49.175 274.073 53.6333 273.565 57.0489 276.671C63.8399 282.234 61.5005 280.319 62.0018 280.734L66.4267 278.686C66.5202 278.646 66.6272 278.672 66.6873 278.746L83.6182 300.429C83.6917 300.523 83.6783 300.657 83.5848 300.737L72.0614 309.895C71.2593 310.524 70.0896 310.39 69.4546 309.594ZM65.4174 298.943C65.932 298.943 66.3531 299.452 66.3799 300.108L66.5603 304.754C66.5737 305.088 66.6807 305.396 66.8544 305.624L69.7888 309.326C70.2767 309.935 71.1657 310.042 71.7806 309.553L83.1369 300.529L66.4467 279.154L62.0552 281.189C61.9817 281.223 61.8881 281.216 61.828 281.163L56.7614 277.012C53.5196 274.067 49.3421 274.549 46.4144 277.742C45.9265 278.277 45.8864 279.174 46.3342 279.737L61.3735 298.715C61.5339 298.916 61.7478 299.003 61.955 299.023C63.0646 298.983 65.5845 298.936 65.4174 298.943Z" fill="#EA4335"/>
<path d="M73.2912 287.569L78.6585 304.365L83.4444 300.556L73.2912 287.569Z" fill="#161616"/>
<path d="M78.4514 304.432L73.084 287.636C73.0506 287.536 73.0974 287.429 73.191 287.375C73.2845 287.328 73.3982 287.348 73.465 287.435L83.6182 300.422C83.6917 300.516 83.6783 300.65 83.5848 300.73L78.7989 304.533C78.6786 304.626 78.4981 304.58 78.4514 304.432ZM73.8661 288.66L78.7655 303.997L83.1369 300.523L73.8661 288.66Z" fill="#161616"/>
<path d="M72.8902 308.944L71.9143 309.721C71.2058 310.283 70.1831 310.163 69.6216 309.46L66.6873 305.758C66.4868 305.503 66.3598 305.149 66.3464 304.767L66.1793 300.489L72.8902 308.944Z" fill="#161616"/>
<path d="M69.4546 309.594L66.5202 305.892C66.2863 305.597 66.1526 305.202 66.1326 304.774L65.9655 300.496C65.9588 300.288 66.2195 300.188 66.3531 300.355L73.064 308.824C73.1375 308.917 73.1241 309.058 73.0306 309.132L72.0547 309.908C71.2593 310.524 70.0962 310.397 69.4546 309.594ZM66.4267 301.139L66.567 304.754C66.5804 305.088 66.6873 305.396 66.8611 305.617L69.7955 309.319C70.27 309.922 71.159 310.042 71.7806 309.547L72.5827 308.911L66.4267 301.139Z" fill="#161616"/>
<path d="M65.1433 299.164L61.9684 299.224C61.6876 299.231 61.4203 299.09 61.2131 298.836L46.1738 279.857C45.6859 279.241 45.726 278.164 46.2607 277.581C46.5882 277.226 46.9291 276.912 47.2767 276.624L65.1433 299.164Z" fill="#161616"/>
<path d="M61.9483 299.445C61.6074 299.445 61.2799 299.278 61.0392 298.97L46 279.991C45.4452 279.295 45.492 278.097 46.1003 277.434C46.4077 277.093 46.7486 276.771 47.143 276.457C47.2366 276.383 47.3769 276.396 47.4504 276.49L65.3104 299.03C65.424 299.171 65.3238 299.378 65.1433 299.385L61.9683 299.445C61.9616 299.445 61.955 299.445 61.9483 299.445ZM47.2499 276.939C46.9425 277.2 46.6751 277.461 46.4211 277.735C45.9599 278.244 45.9198 279.195 46.3409 279.73L61.3801 298.709C61.5405 298.909 61.7344 299.03 61.9616 299.017L64.7021 298.963L47.2499 276.939Z" fill="#161616"/>
<path d="M57.3029 277.159C54.93 279.108 51.334 277.929 50.5319 274.991C52.7042 274.502 54.9835 275.098 56.8951 276.838L57.3029 277.159Z" fill="#161616"/>
<path d="M50.3247 275.044C50.2912 274.924 50.3648 274.803 50.4851 274.776C52.7978 274.261 55.1305 274.93 57.0422 276.671L57.4366 276.985C57.5435 277.072 57.5435 277.233 57.4366 277.32C54.9501 279.369 51.1736 278.144 50.3247 275.044ZM50.8126 275.151C51.6682 277.708 54.7562 278.713 56.9553 277.153L56.7681 276.999C55.0102 275.406 52.9114 274.756 50.8126 275.151Z" fill="#161616"/>
<path d="M224.452 212.82L235.976 203.662C236.684 203.107 237.707 203.22 238.268 203.93L241.203 207.632C241.41 207.893 241.53 208.248 241.544 208.629L241.724 213.275C241.744 213.818 242.078 214.239 242.479 214.233L245.928 214.166C246.209 214.159 246.483 214.3 246.684 214.554L261.723 233.532C262.238 234.182 262.191 235.199 261.636 235.808C258.615 239.116 254.29 239.557 250.995 236.558C244.05 230.861 246.443 232.83 245.928 232.401L241.383 234.503L224.452 212.82Z" fill="#EA4335"/>
<path d="M250.855 236.712C244.063 231.149 246.403 233.064 245.902 232.649L241.477 234.697C241.39 234.744 241.276 234.717 241.216 234.637L224.285 212.954C224.212 212.86 224.225 212.726 224.319 212.646L235.842 203.488C236.644 202.859 237.807 202.993 238.442 203.789L241.376 207.491C241.61 207.786 241.744 208.188 241.764 208.609L241.945 213.255C241.965 213.67 242.199 214.005 242.473 214.005H242.479L245.928 213.938C245.935 213.938 245.942 213.938 245.948 213.938C246.289 213.938 246.617 214.105 246.857 214.407L261.897 233.385C262.472 234.108 262.425 235.26 261.796 235.942C258.695 239.35 254.237 239.792 250.855 236.712ZM246.069 232.227L251.135 236.378C254.357 239.31 258.541 238.861 261.482 235.648C261.97 235.112 262.01 234.215 261.562 233.653L246.523 214.674C246.363 214.474 246.149 214.373 245.942 214.366L242.493 214.433C241.958 214.427 241.544 213.931 241.517 213.269L241.336 208.623C241.323 208.288 241.216 207.98 241.042 207.752L238.108 204.05C237.62 203.441 236.731 203.334 236.116 203.823L224.76 212.847L241.45 234.222L245.841 232.187C245.908 232.167 246.002 232.173 246.069 232.227Z" fill="#EA4335"/>
<path d="M234.605 225.814L229.245 209.018L224.452 212.827L234.605 225.814Z" fill="#161616"/>
<path d="M234.438 225.948L224.285 212.961C224.212 212.867 224.225 212.733 224.319 212.653L229.104 208.85C229.218 208.757 229.399 208.81 229.445 208.957L234.813 225.754C234.886 225.981 234.585 226.135 234.438 225.948ZM224.76 212.86L234.031 224.723L229.131 209.386L224.76 212.86Z" fill="#161616"/>
<path d="M235.007 204.439L235.982 203.662C236.691 203.1 237.714 203.22 238.275 203.923L241.209 207.625C241.41 207.88 241.537 208.234 241.55 208.616L241.717 212.894L235.007 204.439Z" fill="#161616"/>
<path d="M241.544 213.034L234.833 204.566C234.759 204.472 234.773 204.332 234.866 204.258L235.842 203.481C236.624 202.859 237.794 202.966 238.442 203.783L241.377 207.485C241.61 207.779 241.744 208.174 241.764 208.603L241.931 212.88C241.938 213.101 241.677 213.202 241.544 213.034ZM235.314 204.472L241.477 212.244L241.336 208.629C241.323 208.295 241.216 207.987 241.042 207.766L238.108 204.064C237.627 203.455 236.731 203.348 236.123 203.836L235.314 204.472Z" fill="#161616"/>
<path d="M242.76 214.219L245.935 214.159C246.216 214.152 246.483 214.293 246.69 214.547L261.73 233.526C262.218 234.142 262.177 235.219 261.643 235.802C261.315 236.157 260.974 236.471 260.627 236.759L242.76 214.219Z" fill="#161616"/>
<path d="M260.453 236.893L242.593 214.353C242.479 214.213 242.58 214.005 242.76 213.998L245.935 213.938C246.289 213.905 246.617 214.099 246.864 214.413L261.903 233.392C262.458 234.095 262.411 235.286 261.803 235.949C261.489 236.29 261.148 236.612 260.76 236.933C260.667 237.007 260.526 236.987 260.453 236.893ZM243.201 214.427L260.653 236.444C260.954 236.183 261.228 235.922 261.482 235.648C261.944 235.139 261.984 234.188 261.563 233.653L246.523 214.674C246.363 214.474 246.136 214.36 245.942 214.366L243.201 214.427Z" fill="#161616"/>
<path d="M250.594 236.224C252.967 234.275 256.563 235.454 257.365 238.393C255.193 238.881 252.913 238.285 251.002 236.545L250.594 236.224Z" fill="#161616"/>
<path d="M250.855 236.712L250.46 236.398C250.353 236.311 250.353 236.15 250.46 236.063C252.94 234.028 256.73 235.233 257.579 238.346C257.612 238.466 257.539 238.587 257.418 238.613C255.005 239.149 252.693 238.386 250.855 236.712ZM250.948 236.23C251.175 236.364 253.495 238.908 257.091 238.232C256.229 235.681 253.141 234.67 250.948 236.23Z" fill="#161616"/>
<path d="M132.914 191.325C132.914 191.325 145.272 199.03 164.282 198.541C183.298 198.059 158.587 186.364 158.587 186.364L132.914 191.325Z" fill="#161616"/>
<path d="M196.499 195.355C196.499 209.413 177.523 229.603 155.118 248.541C150.787 252.196 146.329 255.818 141.85 259.326C112.961 282.006 83.3976 300.523 83.3976 300.523L62.336 273.29C62.336 273.29 135.614 205.001 161.308 175.171C167.938 167.479 196.499 167.272 196.499 195.355Z" fill="white"/>
<path d="M83.2305 300.65L62.1756 273.417C62.1087 273.33 62.1154 273.203 62.2023 273.123C62.9376 272.44 135.768 204.499 161.161 175.017C164.616 171 174.068 168.845 182.617 172.025C187.884 173.986 196.727 179.629 196.727 195.348C196.727 207.498 182.777 225.452 155.272 248.702C151.027 252.283 146.556 255.912 141.997 259.493C113.429 281.926 83.8254 300.516 83.5246 300.704C83.4244 300.757 83.2974 300.744 83.2305 300.65ZM62.6368 273.304L83.4511 300.222C85.8841 298.689 114.278 280.687 141.716 259.145C146.275 255.57 150.74 251.942 154.978 248.367C182.383 225.205 196.279 207.364 196.279 195.348C196.279 179.891 187.616 174.361 182.449 172.433C174.195 169.36 164.77 171.476 161.475 175.298C136.617 204.171 66.3197 269.863 62.6368 273.304Z" fill="#161616"/>
<path d="M155.118 248.534C150.787 252.19 146.329 255.811 141.85 259.319C141.757 244.799 146.188 229.563 146.188 229.563L155.118 248.534Z" fill="#161616"/>
<path d="M82.4484 279.389C82.3883 279.288 82.415 279.154 82.522 279.087C132.178 248.414 159.911 199.793 160.191 199.304C160.251 199.197 160.378 199.164 160.485 199.224C160.592 199.284 160.626 199.418 160.566 199.518C160.292 200.007 132.499 248.729 82.7492 279.462C82.649 279.523 82.5086 279.496 82.4484 279.389Z" fill="#161616"/>
<path d="M155.98 190.207C155.98 190.207 129.09 261.816 160.372 275.419C189.769 288.205 243.409 237.757 243.409 237.757L224.466 212.854C224.466 212.854 184.562 241.532 189.053 232.455C205.129 199.947 193.425 181.631 193.425 181.631" fill="white"/>
<path d="M160.285 275.62C153.079 272.487 148.367 266.027 146.275 256.414C144.611 248.755 144.591 239.089 146.228 227.682C149.009 208.281 155.706 190.314 155.773 190.133C155.813 190.019 155.94 189.966 156.054 190.006C156.168 190.046 156.221 190.173 156.181 190.287C156.114 190.468 149.43 208.395 146.656 227.755C144.103 245.562 144.424 268.256 160.452 275.225C175.551 281.792 197.248 271.222 212.789 261.207C228.724 250.931 241.611 239.122 243.108 237.736L224.412 213.155C221.451 215.277 191.58 236.639 188.739 234.229C188.352 233.901 188.392 233.285 188.853 232.354C204.688 200.322 193.351 181.932 193.238 181.745C193.171 181.644 193.204 181.511 193.304 181.444C193.405 181.377 193.538 181.41 193.605 181.511C193.726 181.691 205.189 200.295 189.247 232.542C188.9 233.238 188.826 233.713 189.027 233.887C190.972 235.554 211.211 222.105 224.339 212.666C224.432 212.599 224.566 212.619 224.64 212.713L243.582 237.616C243.649 237.703 243.642 237.83 243.556 237.904C243.422 238.031 229.94 250.657 213.029 261.555C198.545 270.907 176.019 282.461 160.285 275.62Z" fill="#161616"/>
<path d="M182.884 256.019C174.983 256.019 167.972 253.361 164.843 245.924C157.578 228.666 173.646 193.989 173.807 193.641C173.86 193.534 173.987 193.48 174.094 193.534C174.201 193.587 174.248 193.714 174.201 193.822C174.041 194.17 158.052 228.666 165.245 245.75C168.299 253 175.157 255.577 182.884 255.577C204.153 255.577 224.72 232.267 224.954 231.999C225.034 231.906 225.168 231.899 225.261 231.979C225.355 232.06 225.361 232.194 225.281 232.287C225.214 232.361 218.477 240.053 208.838 246.6C202.007 251.246 192.609 256.019 182.884 256.019Z" fill="#161616"/>
<path d="M215.596 147.356C202.936 175.278 197.041 193.045 197.041 193.045C171.762 202.926 158.146 185.641 132.907 191.331C132.907 191.331 130.233 171.797 121.985 158.435C113.75 145.093 101.204 134.235 105.89 98.1793L128.402 97.9383C128.402 97.9383 126.497 134.021 147.405 139.303C150.138 139.992 153.46 140.347 157.043 140.394C162.765 140.468 169.148 139.751 174.83 138.339C179.622 137.154 183.92 135.467 186.901 133.358C204.5 120.9 203.184 92.3686 203.184 92.3686H225.656C232.654 118.008 215.596 147.356 215.596 147.356Z" fill="#362BFD"/>
<path d="M171.635 139.035C172.717 138.821 173.787 138.586 174.83 138.325C174.876 138.546 174.916 138.767 174.923 138.995C175.144 142.396 171.314 145.408 166.367 145.736C161.535 146.051 157.417 143.674 157.036 140.381C158.514 140.401 160.038 140.367 161.588 140.28L162.905 133.465C153.233 130.145 165.372 114.808 166.581 113.657L179.355 123.156L174.315 131.544L171.635 139.035Z" fill="white"/>
<path d="M161.548 140.494C161.428 140.474 161.354 140.354 161.374 140.24L162.658 133.606C160.699 132.883 159.51 131.611 159.115 129.81C157.832 123.919 165.666 114.226 166.428 113.496C166.508 113.422 166.621 113.416 166.708 113.476L179.482 122.975C179.569 123.042 179.595 123.169 179.535 123.263L174.495 131.651L171.828 139.095C171.788 139.209 171.668 139.269 171.548 139.229C171.434 139.189 171.374 139.062 171.414 138.948L174.094 131.464L179.047 123.203L166.581 113.931C165.345 115.283 158.326 124.227 159.523 129.703C159.891 131.397 161.047 132.588 162.959 133.244C163.059 133.278 163.119 133.385 163.099 133.492L161.782 140.307C161.782 140.434 161.675 140.514 161.548 140.494Z" fill="#161616"/>
<path d="M218.397 6.69435L242.606 60.8784C245.073 66.3946 242.606 72.8747 237.092 75.3449L144.043 117.051C138.535 119.521 132.065 117.051 129.598 111.528L105.388 57.3438C102.922 51.8277 105.388 45.3475 110.903 42.8773L203.952 1.17151C209.467 -1.29201 215.93 1.17821 218.397 6.69435Z" fill="white"/>
<path d="M129.411 111.622L105.195 57.4375C102.675 51.8076 105.188 45.2069 110.816 42.6832L203.865 0.977374C209.487 -1.5464 216.077 0.97068 218.597 6.60732L242.807 60.7914C245.32 66.408 242.794 73.0287 237.186 75.5458L144.136 117.252C138.475 119.789 131.904 117.211 129.411 111.622ZM208.417 0.435132C206.927 0.435132 205.443 0.749766 204.046 1.37904L110.996 43.0848C105.589 45.5082 103.176 51.8477 105.596 57.2635L129.805 111.448C132.225 116.857 138.555 119.28 143.962 116.857L237.012 75.1508C242.419 72.7274 244.832 66.3879 242.413 60.9721L218.203 6.78807C216.398 2.75807 212.461 0.435132 208.417 0.435132Z" fill="#161616"/>
<path d="M211.86 0.776545L180.712 61.8826C179.007 65.2231 175.217 66.9167 171.601 65.9661L105.342 48.5207C106.391 46.0973 108.316 44.0488 110.909 42.884L203.959 1.17821C206.546 0.0133889 209.353 -0.060249 211.86 0.776545Z" fill="#EA4335"/>
<path d="M173.586 66.4414C172.905 66.4414 172.216 66.3544 171.541 66.1803L105.288 48.7349C105.154 48.7014 105.094 48.5608 105.141 48.4403C106.251 45.8764 108.269 43.8346 110.816 42.6899L203.865 0.977375C206.419 -0.167359 209.279 -0.30794 211.926 0.56902C212.053 0.609186 212.114 0.756461 212.053 0.87696L180.905 61.983C179.488 64.7544 176.608 66.4414 173.586 66.4414ZM105.642 48.3734L171.648 65.7586C175.144 66.6824 178.867 65.0088 180.511 61.7889L211.545 0.910431C209.072 0.15397 206.412 0.314634 204.039 1.37904L110.99 43.0848C108.623 44.1425 106.732 46.017 105.642 48.3734Z" fill="#161616"/>
<path d="M242.6 69.8555C241.537 72.212 239.639 74.2069 237.099 75.3449L144.049 117.051C141.509 118.189 138.762 118.276 136.302 117.506L165.706 64.4197L171.594 65.9728C175.211 66.9234 179 65.2231 180.705 61.8893L183.472 56.4601L242.6 69.8555Z" fill="white"/>
<path d="M136.236 117.713C136.109 117.673 136.042 117.519 136.109 117.399L165.512 64.3126C165.559 64.2256 165.659 64.1787 165.759 64.2055L171.648 65.7519C175.144 66.6757 178.867 65.0021 180.511 61.7822L183.278 56.353C183.325 56.266 183.425 56.2192 183.519 56.2392L242.64 69.648C242.774 69.6815 242.847 69.8221 242.787 69.9493C241.664 72.4396 239.672 74.4278 237.179 75.5457L144.129 117.252C141.65 118.37 138.849 118.537 136.236 117.713ZM136.623 117.372C139.05 118.075 141.65 117.888 143.962 116.85L237.012 75.1441C239.325 74.1065 241.189 72.2856 242.292 70.0095L183.592 56.7011L180.899 61.983C179.161 65.3837 175.231 67.151 171.541 66.1804L165.813 64.6741L136.623 117.372Z" fill="#161616"/>
<path d="M164.422 110.524C165.352 107.15 171.026 108.91 178.379 111.916C192.75 117.787 181.233 133.117 174.91 132.126C170.218 131.39 176.206 126.744 176.206 126.744C176.206 126.744 172.504 126.209 173.747 123.357C174.983 120.498 162.571 117.238 164.422 110.524Z" fill="#161616"/>
<path d="M163.634 124.896C163.139 124.749 162.484 124.488 162.203 124.073C161.929 123.671 162.103 123.236 162.564 123.035C162.905 122.881 163.32 122.841 163.654 122.741C164.376 122.527 164.73 122.031 165.077 121.556C165.151 121.456 165.285 121.436 165.378 121.509C165.479 121.583 165.499 121.717 165.425 121.81C165.077 122.292 164.643 122.895 163.774 123.156C163.44 123.256 163.019 123.303 162.738 123.43C162.538 123.517 162.437 123.645 162.558 123.825C162.718 124.06 163.152 124.301 163.754 124.475C163.868 124.508 163.934 124.629 163.901 124.743C163.868 124.87 163.747 124.93 163.634 124.896Z" fill="#161616"/>
<path d="M166.307 122.306C166.22 122.64 166.414 122.982 166.748 123.076C167.083 123.163 167.424 122.969 167.517 122.634C167.604 122.299 167.404 121.958 167.076 121.864C166.742 121.777 166.401 121.971 166.307 122.306Z" fill="#161616"/>
<path d="M169.235 122.493C169.175 121.917 168.968 121.502 168.613 121.268C167.985 120.84 167.089 121.094 167.076 121.094C166.956 121.128 166.842 121.061 166.809 120.947C166.775 120.833 166.842 120.713 166.956 120.679C167.003 120.666 168.059 120.371 168.854 120.913C169.315 121.228 169.589 121.743 169.663 122.453C169.676 122.574 169.589 122.681 169.469 122.694C169.369 122.701 169.242 122.62 169.235 122.493Z" fill="#161616"/>
<path d="M162.31 120.264C162.223 120.599 162.417 120.94 162.751 121.034C163.086 121.121 163.427 120.927 163.52 120.592C163.607 120.257 163.406 119.916 163.079 119.822C162.738 119.728 162.397 119.929 162.31 120.264Z" fill="#161616"/>
<path d="M164.977 120.311C164.917 119.735 164.71 119.327 164.356 119.086C163.727 118.664 162.825 118.905 162.818 118.912C162.705 118.939 162.584 118.878 162.551 118.764C162.517 118.651 162.584 118.53 162.698 118.497C162.745 118.483 163.801 118.189 164.596 118.731C165.057 119.046 165.332 119.561 165.405 120.271C165.418 120.391 165.332 120.498 165.211 120.512C165.118 120.518 164.991 120.438 164.977 120.311Z" fill="#161616"/>
<path d="M162.892 133.472C164.476 134.074 166.568 133.599 168.827 132.91C168.827 132.91 167.992 136.304 162.537 135.4L162.892 133.472Z" fill="#161616"/>
<path d="M164.262 135.768C163.734 135.768 163.146 135.721 162.497 135.614C162.377 135.594 162.297 135.48 162.317 135.36L162.671 133.432C162.698 133.298 162.832 133.218 162.959 133.271C164.509 133.86 166.662 133.345 168.754 132.702C168.928 132.655 169.068 132.809 169.028 132.963C169.028 132.997 168.293 135.768 164.262 135.768ZM162.791 135.219C166.688 135.802 168.045 134.061 168.46 133.251C166.287 133.894 164.509 134.208 163.066 133.76L162.791 135.219Z" fill="#161616"/>
<path d="M173.286 127.44C172.918 128.719 173.66 130.051 174.937 130.419C176.22 130.788 177.55 130.044 177.918 128.766C178.285 127.481 177.543 126.148 176.26 125.78C174.983 125.412 173.653 126.155 173.286 127.44Z" fill="white"/>
<path d="M174.883 130.627C173.493 130.225 172.684 128.773 173.085 127.38C173.486 125.988 174.943 125.178 176.327 125.573C177.724 125.974 178.533 127.427 178.132 128.826C177.724 130.219 176.273 131.022 174.883 130.627ZM173.499 127.501C173.165 128.659 173.84 129.877 175.003 130.205C176.16 130.54 177.376 129.87 177.71 128.706C178.045 127.527 177.363 126.322 176.207 125.988C175.044 125.653 173.827 126.336 173.499 127.501Z" fill="#161616"/>
<path d="M161.288 125.948C161.996 126.088 161.749 126.322 164.001 126.911C166.261 127.501 162.344 130.62 160.94 129.777C159.55 128.933 160.111 125.707 161.288 125.948Z" fill="#161616"/>
<path d="M162.604 128.886C162.952 128.712 162.41 128.143 162.11 127.963C161.822 127.788 161.421 128.143 160.94 128.103C160.76 128.083 162.056 129.167 162.604 128.886Z" fill="white"/>
<path d="M94.2058 292.59L70.7245 265.404C70.6443 265.31 70.6577 265.177 70.7446 265.096C70.8382 265.016 70.9718 265.029 71.0521 265.116L94.54 292.302C94.6202 292.396 94.6069 292.53 94.52 292.61C94.4264 292.69 94.286 292.684 94.2058 292.59Z" fill="#161616"/>
<path d="M235.454 244.705L214.433 219.876C214.353 219.782 214.366 219.648 214.46 219.568C214.553 219.494 214.687 219.501 214.767 219.595L235.789 244.424C235.869 244.518 235.855 244.652 235.762 244.732C235.668 244.812 235.535 244.799 235.454 244.705Z" fill="#161616"/>
<path d="M112.801 92.4423C112.667 91.8197 112.634 91.1837 112.701 90.5612C112.714 90.4407 112.814 90.3603 112.941 90.367C113.062 90.3804 113.149 90.4875 113.135 90.608C113.075 91.1838 113.108 91.7729 113.229 92.3553C113.255 92.4758 113.175 92.5896 113.062 92.6163C112.941 92.6297 112.828 92.5561 112.801 92.4423Z" fill="#161616"/>
<path d="M116.003 92.4423C115.869 91.8197 115.836 91.1837 115.902 90.5612C115.916 90.4407 116.009 90.3603 116.143 90.367C116.263 90.3804 116.35 90.4875 116.337 90.608C116.277 91.1838 116.31 91.7729 116.43 92.3553C116.457 92.4758 116.377 92.5896 116.263 92.6163C116.136 92.6297 116.023 92.5561 116.003 92.4423Z" fill="#161616"/>
<path d="M117.714 96.8338C117.707 96.8338 117.707 96.8338 117.7 96.8338C117.58 96.8271 117.487 96.7267 117.493 96.6062C117.62 94.2498 119.686 93.587 119.706 93.5803C119.819 93.5469 119.94 93.6071 119.98 93.7209C120.013 93.8347 119.953 93.9552 119.839 93.9954C119.766 94.0155 118.048 94.5845 117.934 96.633C117.928 96.7468 117.827 96.8338 117.714 96.8338Z" fill="#161616"/>
<path d="M209.346 91.8733C207.515 90.0256 204.768 86.9797 205.476 85.8818C206.76 83.8869 210.864 87.9638 210.864 87.9638C210.864 87.9638 212.882 87.9504 212.668 90.5813" fill="white"/>
<path d="M209.193 92.0272C205.998 88.8139 204.687 86.7052 205.289 85.7613C206.432 83.9873 209.433 86.2768 210.95 87.7495C211.184 87.7696 211.806 87.87 212.294 88.3922C212.762 88.8943 212.956 89.6373 212.882 90.6013C212.876 90.7218 212.769 90.8089 212.648 90.8022C212.528 90.7955 212.441 90.6884 212.448 90.5679C212.515 89.7378 212.354 89.1018 211.973 88.6935C211.512 88.1914 210.87 88.1914 210.857 88.1914C210.797 88.1914 210.743 88.1713 210.703 88.1311C209.56 86.9864 206.572 84.5831 205.65 86.009C205.195 86.7119 206.633 88.8541 209.493 91.7327C209.58 91.8197 209.58 91.9536 209.493 92.0406C209.42 92.1143 209.279 92.1143 209.193 92.0272Z" fill="#161616"/>
<path d="M224.867 99.9312L205.315 102.874L205.408 103.489L224.96 100.547L224.867 99.9312Z" fill="#161616"/>
<path d="M209.019 97.5702C209.019 98.3601 208.37 99.0094 207.582 99.0094C206.786 99.0094 206.145 98.3601 206.145 97.5702C206.145 96.7735 206.786 96.1309 207.582 96.1309C208.37 96.1309 209.019 96.7735 209.019 97.5702Z" fill="white"/>
<path d="M107.25 105.223L107.13 105.833L127.634 109.89L127.754 109.279L107.25 105.223Z" fill="#161616"/>
<path d="M123.502 103.207C123.502 103.997 122.854 104.646 122.065 104.646C121.27 104.646 120.628 103.997 120.628 103.207C120.628 102.41 121.27 101.768 122.065 101.768C122.854 101.768 123.502 102.403 123.502 103.207Z" fill="white"/>
<path d="M209.019 162.539C208.899 162.539 208.805 162.445 208.805 162.325C208.731 144.805 196.52 137.73 196.399 137.663C196.292 137.602 196.259 137.468 196.319 137.368C196.379 137.261 196.513 137.227 196.613 137.281C196.74 137.355 209.166 144.544 209.246 162.318C209.239 162.438 209.139 162.539 209.019 162.539Z" fill="#161616"/>
<path d="M123.161 160.618C123.041 160.618 122.941 160.517 122.948 160.397C123.021 142.616 135.453 135.427 135.58 135.36C135.681 135.3 135.814 135.34 135.875 135.447C135.935 135.554 135.895 135.681 135.794 135.741C135.674 135.808 123.462 142.891 123.389 160.403C123.382 160.524 123.282 160.618 123.161 160.618Z" fill="#161616"/>
<path d="M42.7382 251.493C38.1997 248.012 35.6597 242.583 33.4205 237.79C33.3671 237.683 33.4138 237.549 33.5275 237.502C33.6344 237.449 33.7681 237.495 33.8149 237.609C36.034 242.356 38.5472 247.731 43.0055 251.152C47.143 254.325 54.0276 255.343 57.9312 251.446C61.9817 247.403 60.8855 240.575 58.7132 235.949C56.3337 230.888 52.6106 226.369 51.2203 220.907C48.7271 211.113 54.1814 201.393 59.3749 192.951C63.5926 186.096 67.9573 179.007 68.3851 171.047C68.6592 165.953 67.3157 160.457 64.2811 154.251C60.8789 147.282 56.6612 142.275 51.7617 139.37C39.4897 132.1 25.7605 139.042 25.7672 154.847C25.7672 161.019 27.8727 167.004 30.025 172.6C31.9567 177.614 34.0355 182.729 34.3964 188.064C34.8376 194.611 32.6385 200.302 26.7097 203.856C22.2447 206.541 19.5644 210.122 24.1965 218.222C26.2552 221.831 28.8486 225.084 31.9032 227.902C31.9901 227.983 31.9968 228.123 31.9166 228.21C31.8364 228.297 31.696 228.304 31.6091 228.224C28.5278 225.379 25.9076 222.085 23.8221 218.437C19.0831 210.142 21.9172 206.219 26.4891 203.481C32.2775 200.014 34.3897 194.457 33.9619 188.091C33.6077 182.829 31.549 177.742 29.624 172.754C27.4583 167.118 25.3394 161.086 25.3394 154.84C25.3328 138.687 39.4763 131.571 51.989 138.988C56.9686 141.934 61.2398 147.001 64.6821 154.05C67.7501 160.33 69.107 165.893 68.8263 171.061C68.3918 179.134 64.0003 186.27 59.7492 193.172C54.6292 201.493 49.1817 211.126 51.6414 220.793C53.0117 226.169 56.7347 230.714 59.1076 235.762C61.3401 240.515 62.4496 247.55 58.2386 251.748C54.1814 255.791 47.2299 254.948 42.7382 251.493Z" fill="#161616"/>
<path d="M31.315 265.13C31.2348 264.788 23.782 230.379 42.6713 197.269C48.5066 187.047 52.0959 176.102 53.3592 164.748C53.3726 164.627 53.4795 164.54 53.5999 164.554C53.7202 164.567 53.8071 164.674 53.7937 164.795C52.5304 176.215 48.9143 187.214 43.0523 197.483C24.2499 230.44 31.6626 264.688 31.7428 265.029C31.7696 265.15 31.696 265.264 31.5757 265.29C31.4621 265.324 31.3418 265.25 31.315 265.13Z" fill="#161616"/>
<path d="M26.3755 244.438C28.0799 242.864 29.5438 241.023 30.7001 239.008C31.8765 236.947 32.6719 234.188 31.1947 232.327C30.4127 231.343 29.1761 230.868 28.1668 230.125C25.7672 228.351 24.8248 225.111 25.032 222.132C25.4397 216.04 29.8445 210.571 29.8445 203.595C29.8512 185.44 4.79919 193.554 5.82854 212.639C6.09591 217.64 9.11044 221.998 11.7106 226.276C14.304 230.553 16.6501 235.561 15.4136 240.414C14.6382 243.447 12.5728 245.957 11.2427 248.782C9.91253 251.614 9.49143 255.356 11.7039 257.565C13.8963 259.747 17.7396 259.292 20.186 257.411C22.6391 255.53 24.0361 252.618 25.3461 249.813" fill="#EBEAFF"/>
<path d="M26.4624 265.297C26.3421 265.27 26.2752 265.157 26.2953 265.036C26.3354 264.849 30.4662 245.776 19.9989 227.427C16.7237 221.683 14.7051 215.538 13.9965 209.158C13.9832 209.038 14.0701 208.931 14.1904 208.917C14.3174 208.897 14.4176 208.991 14.431 209.111C15.1328 215.431 17.1314 221.523 20.3799 227.213C30.9341 245.709 26.7699 264.942 26.7231 265.13C26.6963 265.25 26.576 265.324 26.4624 265.297Z" fill="#161616"/>
<path d="M269.844 213.697C266.997 211.515 265.406 208.114 264.002 205.115C263.949 205.008 263.996 204.874 264.109 204.827C264.216 204.773 264.35 204.82 264.397 204.934C265.78 207.886 267.344 211.234 270.105 213.356C272.658 215.317 276.909 215.946 279.316 213.543C281.815 211.053 281.134 206.829 279.79 203.97C278.313 200.824 275.98 197.992 275.105 194.565C273.54 188.426 276.949 182.334 280.205 177.059C282.831 172.788 285.552 168.37 285.819 163.422C285.993 160.256 285.157 156.842 283.266 152.979C281.147 148.648 278.534 145.535 275.486 143.728C271.729 141.505 267.104 141.411 263.982 143.493C261.148 145.388 259.384 149.15 259.384 153.314C259.384 157.15 260.694 160.879 262.03 164.366C263.24 167.506 264.537 170.699 264.764 174.04C265.045 178.177 263.655 181.738 259.932 183.974C257.178 185.628 255.527 187.817 258.394 192.831C259.678 195.073 261.289 197.102 263.187 198.849C263.274 198.929 263.28 199.07 263.2 199.157C263.12 199.244 262.98 199.251 262.893 199.17C260.961 197.39 259.323 195.328 258.02 193.045C255.039 187.83 256.824 185.333 259.711 183.599C263.341 181.417 264.597 177.929 264.336 174.066C264.116 170.793 262.833 167.627 261.636 164.52C260.279 160.992 258.956 157.224 258.956 153.314C258.956 149.003 260.787 145.1 263.748 143.132C267.01 140.956 271.823 141.05 275.713 143.353C278.834 145.2 281.508 148.374 283.66 152.785C285.579 156.715 286.427 160.202 286.254 163.443C285.98 168.503 283.232 172.962 280.579 177.28C277.397 182.448 274.002 188.446 275.532 194.451C276.381 197.785 278.707 200.63 280.185 203.776C281.588 206.762 282.283 211.193 279.623 213.844C277.056 216.408 272.665 215.859 269.844 213.697Z" fill="#161616"/>
<path d="M262.686 222.152C262.639 221.938 257.98 200.436 269.784 179.743C273.42 173.37 275.659 166.555 276.441 159.48C276.455 159.359 276.562 159.265 276.682 159.285C276.802 159.299 276.889 159.406 276.876 159.526C276.087 166.663 273.828 173.538 270.165 179.958C258.441 200.502 263.067 221.837 263.113 222.052C263.14 222.165 263.067 222.286 262.946 222.313C262.833 222.346 262.712 222.273 262.686 222.152Z" fill="#161616"/>
<path d="M92.2942 53.5079H88.6647C88.5778 53.5079 88.5043 53.4611 88.4642 53.3807C87.7958 51.8879 86.2384 51.031 84.7478 51.1649C84.6208 51.1783 84.5005 51.0712 84.5139 50.9306C84.5272 50.7833 84.5272 50.6361 84.5272 50.4888C84.5272 46.9073 81.6196 43.9953 78.0503 43.9953C77.1346 43.9953 76.2523 44.1827 75.4168 44.5576C75.2697 44.6178 75.116 44.5174 75.1093 44.3635C74.8754 37.7963 69.5415 32.6483 62.9777 32.6483C61.4537 32.6483 59.9698 32.9295 58.5661 33.4784C58.4859 33.5119 58.3924 33.4918 58.3322 33.4249C55.5984 30.6467 51.9556 29.1204 48.0654 29.1204C40.1113 29.1204 33.6411 35.6006 33.6411 43.5668C33.6411 44.0087 33.6611 44.4371 33.7013 44.8588C33.7146 44.986 33.6144 45.1065 33.4539 45.0931C33.1665 45.053 32.8657 45.0262 32.5583 45.0262C29.1895 45.0262 26.4089 47.5567 26.1014 50.9172C26.0881 51.031 25.9945 51.1114 25.8875 51.1114H22.1845C22.0642 51.1114 21.9706 51.011 21.9706 50.8971C21.9706 50.7766 22.0709 50.6829 22.1845 50.6829H25.6937C26.1081 47.2019 29.0291 44.5978 32.5583 44.5978C32.7922 44.5978 33.0262 44.6112 33.2467 44.6312C33.22 44.2831 33.2133 43.9283 33.2133 43.5668C33.2133 35.3596 39.8774 28.6853 48.0721 28.6853C52.0291 28.6853 55.7454 30.225 58.5461 33.0232C59.9564 32.4877 61.4537 32.2132 62.9843 32.2132C69.6818 32.2132 75.136 37.3813 75.5371 44.0354C76.3392 43.7208 77.1881 43.5601 78.057 43.5601C81.8402 43.5601 85.062 46.6529 84.9684 50.7164C86.7196 50.7164 88.13 51.6938 88.8117 53.0728H92.3008C92.4212 53.0728 92.5147 53.1732 92.5147 53.287C92.5147 53.4142 92.4145 53.5079 92.2942 53.5079Z" fill="#161616"/>
<path d="M37.6182 47.4629C36.5754 46.1642 35.0982 45.3208 33.4606 45.0931C33.3403 45.0798 33.2601 44.9659 33.2735 44.8455C33.2869 44.725 33.4005 44.6446 33.5208 44.658C35.272 44.899 36.8495 45.8027 37.959 47.1885C38.0326 47.2822 38.0192 47.4161 37.9256 47.4964C37.8321 47.5701 37.6917 47.5567 37.6182 47.4629Z" fill="#161616"/>
<path d="M73.0773 45.9902C72.9904 45.9099 72.9904 45.7693 73.0706 45.6822C73.6923 45.0329 74.4275 44.5174 75.243 44.1559C75.3499 44.1091 75.4836 44.1559 75.5304 44.263C75.5772 44.3702 75.5304 44.504 75.4234 44.5509C74.6548 44.8923 73.973 45.3743 73.3848 45.9835C73.2979 46.0705 73.1575 46.0705 73.0773 45.9902Z" fill="#161616"/>
<path d="M83.1904 51.3724C83.1436 51.2653 83.1904 51.1314 83.2974 51.0846C83.7452 50.8838 84.2264 50.7633 84.7144 50.7298C84.8347 50.7097 84.935 50.8101 84.9483 50.9306C84.955 51.0511 84.8681 51.1515 84.7478 51.1649C84.3067 51.1984 83.8789 51.3055 83.4778 51.4862C83.3642 51.5264 83.2372 51.4796 83.1904 51.3724Z" fill="#161616"/>
<path d="M55.5583 34.8976C55.4848 34.7972 55.5115 34.6633 55.6051 34.5964C56.4272 34.0006 57.3229 33.4985 58.2654 33.1236C58.379 33.0768 58.506 33.1303 58.5461 33.2441C58.5929 33.3579 58.5394 33.4851 58.4258 33.5253C57.5168 33.8935 56.6545 34.3755 55.8591 34.9512C55.7655 35.0181 55.6318 34.9981 55.5583 34.8976Z" fill="#161616"/>
<path d="M326.586 107.243C325.904 105.731 324.34 104.894 322.869 105.028C322.736 105.041 322.622 104.927 322.635 104.793C322.943 101.178 319.988 97.858 316.172 97.858C315.256 97.858 314.374 98.0455 313.538 98.4203C313.398 98.4806 313.237 98.3869 313.231 98.2262C312.997 91.659 307.663 86.5111 301.099 86.5111C299.575 86.5111 298.091 86.7923 296.688 87.3412C296.607 87.3747 296.514 87.3546 296.454 87.2876C293.72 84.5095 290.077 82.9832 286.187 82.9832C278.233 82.9832 271.762 89.4633 271.762 97.4296C271.762 97.8647 271.783 98.2932 271.823 98.7216C271.836 98.8555 271.722 98.976 271.575 98.9559C271.288 98.9157 270.987 98.889 270.68 98.889C267.311 98.889 264.53 101.419 264.223 104.78C264.209 104.894 264.116 104.974 264.009 104.974H260.306C260.186 104.974 260.092 104.874 260.092 104.76C260.092 104.639 260.192 104.546 260.306 104.546H263.815C264.23 101.065 267.15 98.4605 270.68 98.4605C270.914 98.4605 271.148 98.4739 271.368 98.494C271.341 98.1392 271.328 97.7844 271.328 97.4296C271.328 89.2223 277.992 82.548 286.187 82.548C290.144 82.548 293.86 84.0877 296.661 86.8793C298.078 86.3437 299.568 86.0693 301.099 86.0693C307.797 86.0693 313.251 91.2373 313.652 97.8915C314.454 97.5769 315.303 97.4162 316.172 97.4162C320.069 97.4162 323.203 100.656 323.083 104.572C324.894 104.572 326.338 105.617 326.987 107.063C327.033 107.17 326.987 107.304 326.88 107.351C326.766 107.397 326.632 107.351 326.586 107.243Z" fill="#161616"/>
<path d="M275.733 101.326C274.69 100.027 273.213 99.1835 271.575 98.9559C271.455 98.9425 271.375 98.8287 271.388 98.7082C271.402 98.5877 271.515 98.5074 271.636 98.5208C273.387 98.7618 274.964 99.6655 276.074 101.051C276.147 101.145 276.134 101.279 276.04 101.359C275.947 101.433 275.806 101.419 275.733 101.326Z" fill="#161616"/>
<path d="M311.192 99.8529C311.105 99.7726 311.105 99.632 311.185 99.545C311.807 98.8956 312.542 98.3802 313.358 98.0187C313.471 97.9718 313.598 98.0187 313.645 98.1258C313.692 98.2329 313.645 98.3668 313.538 98.4136C312.77 98.755 312.088 99.237 311.5 99.8462C311.413 99.9332 311.279 99.9399 311.192 99.8529Z" fill="#161616"/>
<path d="M321.305 105.228C321.258 105.121 321.305 104.987 321.412 104.941C321.86 104.74 322.341 104.619 322.829 104.586C322.949 104.566 323.05 104.666 323.063 104.787C323.07 104.907 322.983 105.008 322.862 105.021C322.421 105.054 321.994 105.162 321.593 105.342C321.479 105.389 321.352 105.342 321.305 105.228Z" fill="#161616"/>
<path d="M293.673 88.7604C293.599 88.66 293.626 88.5261 293.72 88.4591C294.542 87.8633 295.438 87.3613 296.38 86.9864C296.494 86.9395 296.621 86.9931 296.661 87.1069C296.708 87.2207 296.654 87.3479 296.54 87.388C295.631 87.7562 294.769 88.2315 293.974 88.8139C293.887 88.8809 293.747 88.8608 293.673 88.7604Z" fill="#161616"/>
<path d="M127.974 287.609C127.947 287.489 128.027 287.375 128.141 287.355L153.902 282.214C154.022 282.187 154.136 282.267 154.156 282.381C154.182 282.502 154.102 282.615 153.989 282.635L128.228 287.777C128.114 287.803 128.001 287.737 127.974 287.609Z" fill="#161616"/>
<path d="M217.594 270.197C217.568 270.084 217.635 269.963 217.748 269.93L247.66 262.238C247.78 262.204 247.894 262.278 247.927 262.392C247.954 262.506 247.887 262.626 247.773 262.66L217.862 270.351C217.748 270.385 217.621 270.318 217.594 270.197Z" fill="#161616"/>
</g>
<defs>
<clipPath id="clip0_124_319">
<rect width="327" height="319" fill="white"/>
</clipPath>
</defs>
</svg>
